# MagicaVoxel @ Ephtracy

# group
o 

# material
mtllib Mecha01_right_thigh.mtl
usemtl palette

# normals
vn -1 0 0
vn 1 0 0
vn 0 0 1
vn 0 0 -1
vn 0 -1 0
vn 0 1 0

# texcoords
vt 0.595703 0.5
vt 0.623047 0.5
vt 0.658203 0.5
vt 0.783203 0.5

# verts
v -0.8 0.6 -0.1
v -0.8 0.6 -0.5
v -0.8 1 -0.1
v -0.8 1 -0.5
v -0.6 0.5 -0.5
v -0.6 0.5 -0.7
v -0.6 0.6 -0.5
v -0.6 0.6 -0.7
v -0.6 0.8 -0.1
v -0.6 0.8 -0.2
v -0.6 0.8 -0.5
v -0.6 0.8 -0.6
v -0.6 0.8 -0.7
v -0.6 0.9 -0.2
v -0.6 0.9 -0.3
v -0.6 0.9 -0.4
v -0.6 0.9 -0.6
v -0.6 0.9 -0.7
v -0.6 1 -0.1
v -0.6 1 -0.2
v -0.6 1 -0.4
v -0.6 1 -0.5
v -0.6 1 -0.6
v -0.6 1 -0.7
v -0.6 1.2 -0.3
v -0.6 1.2 -0.5
v -0.5 0.9 -0.2
v -0.5 0.9 -0.3
v -0.5 1 -0.2
v -0.5 1 -0.3
v -0.7 0.8 -0.1
v -0.7 0.8 -0.2
v -0.7 0.9 -0.2
v -0.7 0.9 -0.4
v -0.7 1 -0.1
v -0.7 1 -0.4
v -0.6 0.7 -0.1
v -0.6 0.7 -0.2
v -0.6 0.8 -0.1
v -0.6 0.8 -0.2
v -0.4 0.5 -0.5
v -0.4 0.5 -0.7
v -0.4 0.6 -0.1
v -0.4 0.6 -0.3
v -0.4 0.6 -0.5
v -0.4 0.6 -0.7
v -0.4 0.7 -0.1
v -0.4 0.7 -0.2
v -0.4 0.7 -0.3
v -0.4 0.7 -0.4
v -0.4 0.7 -0.5
v -0.4 0.8 -0.1
v -0.4 0.8 -0.2
v -0.4 0.8 -0.3
v -0.4 0.8 -0.4
v -0.4 0.8 -0.5
v -0.4 0.8 -0.6
v -0.4 0.8 -0.7
v -0.4 0.9 -0.5
v -0.4 0.9 -0.6
v -0.4 0.9 -0.7
v -0.4 1 -0.1
v -0.4 1 -0.3
v -0.4 1 -0.5
v -0.4 1 -0.7
v -0.4 1.2 -0.3
v -0.4 1.2 -0.5
v -0.3 0.7 -0.4
v -0.3 0.7 -0.5
v -0.3 0.8 -0.4
v -0.3 0.8 -0.5
v -0.2 0.6 -0.3
v -0.2 0.6 -0.5
v -0.2 0.7 -0.3
v -0.2 0.7 -0.5
v -0.2 0.8 -0.3
v -0.2 0.8 -0.5
v -0.2 1 -0.3
v -0.2 1 -0.5
v -0.8 0.6 -0.1
v -0.8 1 -0.1
v -0.7 0.8 -0.1
v -0.7 1 -0.1
v -0.6 0.7 -0.1
v -0.6 0.8 -0.1
v -0.6 1 -0.1
v -0.4 0.6 -0.1
v -0.4 0.7 -0.1
v -0.4 0.8 -0.1
v -0.4 1 -0.1
v -0.7 0.8 -0.2
v -0.7 0.9 -0.2
v -0.6 0.7 -0.2
v -0.6 0.8 -0.2
v -0.6 0.9 -0.2
v -0.4 0.7 -0.2
v -0.4 0.8 -0.2
v -0.6 0.9 -0.3
v -0.6 1.2 -0.3
v -0.5 0.9 -0.3
v -0.5 1 -0.3
v -0.4 0.6 -0.3
v -0.4 0.7 -0.3
v -0.4 0.8 -0.3
v -0.4 1 -0.3
v -0.4 1.2 -0.3
v -0.2 0.6 -0.3
v -0.2 0.7 -0.3
v -0.2 0.8 -0.3
v -0.2 1 -0.3
v -0.7 0.9 -0.4
v -0.7 1 -0.4
v -0.6 0.9 -0.4
v -0.6 1 -0.4
v -0.4 0.7 -0.4
v -0.4 0.8 -0.4
v -0.3 0.7 -0.4
v -0.3 0.8 -0.4
v -0.6 0.5 -0.5
v -0.6 0.6 -0.5
v -0.4 0.5 -0.5
v -0.4 0.6 -0.5
v -0.6 0.9 -0.2
v -0.6 1 -0.2
v -0.5 0.9 -0.2
v -0.5 1 -0.2
v -0.8 0.6 -0.5
v -0.8 1 -0.5
v -0.6 0.6 -0.5
v -0.6 0.8 -0.5
v -0.6 1 -0.5
v -0.6 1.2 -0.5
v -0.5 1 -0.5
v -0.4 0.6 -0.5
v -0.4 0.7 -0.5
v -0.4 0.8 -0.5
v -0.4 0.9 -0.5
v -0.4 1 -0.5
v -0.4 1.2 -0.5
v -0.3 0.7 -0.5
v -0.3 0.8 -0.5
v -0.2 0.6 -0.5
v -0.2 0.7 -0.5
v -0.2 0.8 -0.5
v -0.2 1 -0.5
v -0.6 0.8 -0.6
v -0.6 0.9 -0.6
v -0.4 0.8 -0.6
v -0.4 0.9 -0.6
v -0.6 0.5 -0.7
v -0.6 0.6 -0.7
v -0.6 0.8 -0.7
v -0.6 0.9 -0.7
v -0.6 1 -0.7
v -0.4 0.5 -0.7
v -0.4 0.6 -0.7
v -0.4 0.8 -0.7
v -0.4 0.9 -0.7
v -0.4 1 -0.7
v -0.6 0.5 -0.5
v -0.4 0.5 -0.5
v -0.6 0.5 -0.7
v -0.4 0.5 -0.7
v -0.8 0.6 -0.1
v -0.4 0.6 -0.1
v -0.4 0.6 -0.3
v -0.2 0.6 -0.3
v -0.8 0.6 -0.5
v -0.6 0.6 -0.5
v -0.4 0.6 -0.5
v -0.2 0.6 -0.5
v -0.6 0.8 -0.1
v -0.4 0.8 -0.1
v -0.6 0.8 -0.2
v -0.4 0.8 -0.2
v -0.4 0.8 -0.3
v -0.2 0.8 -0.3
v -0.4 0.8 -0.4
v -0.3 0.8 -0.4
v -0.3 0.8 -0.5
v -0.2 0.8 -0.5
v -0.6 0.9 -0.6
v -0.4 0.9 -0.6
v -0.6 0.9 -0.7
v -0.4 0.9 -0.7
v -0.6 0.7 -0.1
v -0.4 0.7 -0.1
v -0.6 0.7 -0.2
v -0.4 0.7 -0.2
v -0.4 0.7 -0.3
v -0.2 0.7 -0.3
v -0.4 0.7 -0.4
v -0.3 0.7 -0.4
v -0.3 0.7 -0.5
v -0.2 0.7 -0.5
v -0.7 0.8 -0.1
v -0.6 0.8 -0.1
v -0.7 0.8 -0.2
v -0.6 0.8 -0.2
v -0.6 0.8 -0.6
v -0.4 0.8 -0.6
v -0.6 0.8 -0.7
v -0.4 0.8 -0.7
v -0.7 0.9 -0.2
v -0.6 0.9 -0.2
v -0.5 0.9 -0.2
v -0.6 0.9 -0.3
v -0.5 0.9 -0.3
v -0.7 0.9 -0.4
v -0.6 0.9 -0.4
v -0.8 1 -0.1
v -0.7 1 -0.1
v -0.6 1 -0.1
v -0.4 1 -0.1
v -0.6 1 -0.2
v -0.5 1 -0.2
v -0.5 1 -0.3
v -0.4 1 -0.3
v -0.2 1 -0.3
v -0.7 1 -0.4
v -0.6 1 -0.4
v -0.8 1 -0.5
v -0.6 1 -0.5
v -0.5 1 -0.5
v -0.4 1 -0.5
v -0.2 1 -0.5
v -0.6 1 -0.6
v -0.5 1 -0.6
v -0.6 1 -0.7
v -0.4 1 -0.7
v -0.6 1.2 -0.3
v -0.4 1.2 -0.3
v -0.6 1.2 -0.5
v -0.4 1.2 -0.5

# faces
f 3/2/1 2/2/1 1/2/1
f 4/2/1 2/2/1 3/2/1
f 7/4/1 6/4/1 5/4/1
f 8/4/1 6/4/1 7/4/1
f 11/1/1 8/1/1 7/1/1
f 12/1/1 8/1/1 11/1/1
f 13/1/1 8/1/1 12/1/1
f 14/1/1 10/1/1 9/1/1
f 17/3/1 12/3/1 11/3/1
f 19/1/1 14/1/1 9/1/1
f 20/1/1 14/1/1 19/1/1
f 21/4/1 16/4/1 15/4/1
f 22/3/1 17/3/1 11/3/1
f 23/1/1 18/1/1 17/1/1
f 23/3/1 17/3/1 22/3/1
f 24/1/1 18/1/1 23/1/1
f 25/4/1 22/4/1 21/4/1
f 25/4/1 21/4/1 15/4/1
f 26/4/1 22/4/1 25/4/1
f 29/1/1 28/1/1 27/1/1
f 30/1/1 28/1/1 29/1/1
f 31/2/2 32/2/2 33/2/2
f 31/2/2 33/2/2 35/2/2
f 33/2/2 34/2/2 35/2/2
f 35/2/2 34/2/2 36/2/2
f 37/2/2 38/2/2 39/2/2
f 39/2/2 38/2/2 40/2/2
f 41/4/2 42/4/2 45/4/2
f 45/4/2 42/4/2 46/4/2
f 43/2/2 44/2/2 47/2/2
f 47/2/2 44/2/2 48/2/2
f 48/2/2 44/2/2 49/2/2
f 45/1/2 46/1/2 51/1/2
f 49/3/2 50/3/2 53/3/2
f 48/3/2 49/3/2 53/3/2
f 53/3/2 50/3/2 54/3/2
f 54/3/2 50/3/2 55/3/2
f 51/1/2 46/1/2 56/1/2
f 56/1/2 46/1/2 57/1/2
f 57/1/2 46/1/2 58/1/2
f 56/3/2 57/3/2 59/3/2
f 59/3/2 57/3/2 60/3/2
f 52/1/2 53/1/2 62/1/2
f 53/1/2 54/1/2 62/1/2
f 62/1/2 54/1/2 63/1/2
f 60/1/2 61/1/2 64/1/2
f 59/1/2 60/1/2 64/1/2
f 64/1/2 61/1/2 65/1/2
f 63/4/2 64/4/2 66/4/2
f 66/4/2 64/4/2 67/4/2
f 68/3/2 69/3/2 70/3/2
f 70/3/2 69/3/2 71/3/2
f 72/2/2 73/2/2 74/2/2
f 74/2/2 73/2/2 75/2/2
f 76/1/2 77/1/2 78/1/2
f 78/1/2 77/1/2 79/1/2
f 82/2/3 81/2/3 80/2/3
f 83/2/3 81/2/3 82/2/3
f 84/2/3 82/2/3 80/2/3
f 85/2/3 82/2/3 84/2/3
f 87/2/3 84/2/3 80/2/3
f 88/2/3 84/2/3 87/2/3
f 89/1/3 86/1/3 85/1/3
f 90/1/3 86/1/3 89/1/3
f 94/4/3 92/4/3 91/4/3
f 95/4/3 92/4/3 94/4/3
f 96/3/3 94/3/3 93/3/3
f 97/3/3 94/3/3 96/3/3
f 100/4/3 99/4/3 98/4/3
f 101/4/3 99/4/3 100/4/3
f 105/4/3 99/4/3 101/4/3
f 106/4/3 99/4/3 105/4/3
f 107/2/3 103/2/3 102/2/3
f 108/2/3 103/2/3 107/2/3
f 109/1/3 105/1/3 104/1/3
f 110/1/3 105/1/3 109/1/3
f 113/2/3 112/2/3 111/2/3
f 114/2/3 112/2/3 113/2/3
f 117/3/3 116/3/3 115/3/3
f 118/3/3 116/3/3 117/3/3
f 121/4/3 120/4/3 119/4/3
f 122/4/3 120/4/3 121/4/3
f 123/1/4 124/1/4 125/1/4
f 125/1/4 124/1/4 126/1/4
f 127/2/4 128/2/4 129/2/4
f 129/2/4 128/2/4 130/2/4
f 130/2/4 128/2/4 131/2/4
f 131/4/4 132/4/4 133/4/4
f 133/4/4 132/4/4 138/4/4
f 138/4/4 132/4/4 139/4/4
f 134/2/4 135/2/4 140/2/4
f 135/3/4 136/3/4 140/3/4
f 136/1/4 137/1/4 141/1/4
f 140/3/4 136/3/4 141/3/4
f 137/1/4 138/1/4 141/1/4
f 134/2/4 140/2/4 142/2/4
f 142/2/4 140/2/4 143/2/4
f 141/1/4 138/1/4 144/1/4
f 144/1/4 138/1/4 145/1/4
f 146/3/4 147/3/4 148/3/4
f 148/3/4 147/3/4 149/3/4
f 150/4/4 151/4/4 155/4/4
f 151/1/4 152/1/4 156/1/4
f 155/4/4 151/4/4 156/4/4
f 156/1/4 152/1/4 157/1/4
f 153/1/4 154/1/4 158/1/4
f 158/1/4 154/1/4 159/1/4
f 162/4/5 161/4/5 160/4/5
f 163/4/5 161/4/5 162/4/5
f 166/2/5 165/2/5 164/2/5
f 168/2/5 166/2/5 164/2/5
f 168/2/5 167/2/5 166/2/5
f 169/2/5 167/2/5 168/2/5
f 170/2/5 167/2/5 169/2/5
f 171/2/5 167/2/5 170/2/5
f 174/1/5 173/1/5 172/1/5
f 175/1/5 173/1/5 174/1/5
f 178/1/5 177/1/5 176/1/5
f 179/1/5 177/1/5 178/1/5
f 180/1/5 177/1/5 179/1/5
f 181/1/5 177/1/5 180/1/5
f 184/1/5 183/1/5 182/1/5
f 185/1/5 183/1/5 184/1/5
f 186/2/6 187/2/6 188/2/6
f 188/2/6 187/2/6 189/2/6
f 190/2/6 191/2/6 192/2/6
f 192/2/6 191/2/6 193/2/6
f 193/2/6 191/2/6 194/2/6
f 194/2/6 191/2/6 195/2/6
f 196/2/6 197/2/6 198/2/6
f 198/2/6 197/2/6 199/2/6
f 200/1/6 201/1/6 202/1/6
f 202/1/6 201/1/6 203/1/6
f 204/4/6 205/4/6 207/4/6
f 205/4/6 206/4/6 207/4/6
f 207/4/6 206/4/6 208/4/6
f 204/4/6 207/4/6 209/4/6
f 209/4/6 207/4/6 210/4/6
f 213/1/6 214/1/6 215/1/6
f 215/1/6 214/1/6 216/1/6
f 216/1/6 214/1/6 217/1/6
f 217/1/6 214/1/6 218/1/6
f 211/2/6 212/2/6 220/2/6
f 211/2/6 220/2/6 222/2/6
f 220/2/6 221/2/6 222/2/6
f 222/2/6 221/2/6 223/2/6
f 218/1/6 219/1/6 225/1/6
f 225/1/6 219/1/6 226/1/6
f 223/3/6 224/3/6 227/3/6
f 224/1/6 225/1/6 228/1/6
f 227/3/6 224/3/6 228/3/6
f 227/1/6 228/1/6 229/1/6
f 228/1/6 225/1/6 230/1/6
f 229/1/6 228/1/6 230/1/6
f 231/4/6 232/4/6 233/4/6
f 233/4/6 232/4/6 234/4/6
