# MagicaVoxel @ Ephtracy

# group
o 

# material
mtllib Mecha01_left_hand.mtl
usemtl palette

# normals
vn -1 0 0
vn 1 0 0
vn 0 0 1
vn 0 0 -1
vn 0 -1 0
vn 0 1 0

# texcoords
vt 0.595703 0.5
vt 0.623047 0.5
vt 0.658203 0.5
vt 0.783203 0.5

# verts
v 1.3 1.2 -0.5
v 1.3 1.2 -0.7
v 1.3 1.8 -0.5
v 1.3 1.8 -0.7
v 1.4 1 -0.3
v 1.4 1 -0.4
v 1.4 1.1 -0.3
v 1.4 1.1 -0.4
v 1.4 1.2 -0.3
v 1.4 1.2 -0.5
v 1.4 1.2 -0.7
v 1.4 1.2 -0.8
v 1.4 1.8 -0.3
v 1.4 1.8 -0.5
v 1.4 1.8 -0.7
v 1.4 1.8 -0.8
v 1.4 1.9 -0.5
v 1.4 1.9 -0.7
v 1.5 0.9 -0.4
v 1.5 0.9 -0.7
v 1.5 1 -0.4
v 1.5 1 -0.7
v 1.5 1.1 -0.3
v 1.5 1.1 -0.4
v 1.5 1.2 -0.3
v 1.5 1.2 -0.4
v 1.6 1 -0.4
v 1.6 1 -0.7
v 1.6 1.1 -0.4
v 1.6 1.1 -0.7
v 1.6 1.2 -0.4
v 1.6 1.2 -0.5
v 1.6 1.2 -0.7
v 1.6 1.3 -0.3
v 1.6 1.3 -0.4
v 1.6 1.5 -0.3
v 1.6 1.5 -0.4
v 1.7 1.2 -0.3
v 1.7 1.2 -0.4
v 1.7 1.2 -0.6
v 1.7 1.2 -0.7
v 1.7 1.3 -0.3
v 1.7 1.3 -0.4
v 1.7 1.5 -0.6
v 1.7 1.5 -0.7
v 1.7 1.7 -0.4
v 1.7 1.7 -0.6
v 1.7 1.8 -0.4
v 1.7 1.8 -0.6
v 1.5 1 -0.3
v 1.5 1 -0.4
v 1.5 1.1 -0.3
v 1.5 1.1 -0.4
v 1.5 1.2 -0.3
v 1.5 1.2 -0.4
v 1.5 1.3 -0.4
v 1.5 1.5 -0.3
v 1.5 1.5 -0.4
v 1.5 1.7 -0.4
v 1.5 1.7 -0.5
v 1.5 1.8 -0.4
v 1.5 1.8 -0.5
v 1.6 1.2 -0.6
v 1.6 1.2 -0.7
v 1.6 1.2 -0.8
v 1.6 1.5 -0.3
v 1.6 1.5 -0.4
v 1.6 1.5 -0.6
v 1.6 1.5 -0.7
v 1.6 1.6 -0.3
v 1.6 1.6 -0.4
v 1.6 1.6 -0.7
v 1.6 1.7 -0.5
v 1.6 1.7 -0.6
v 1.6 1.8 -0.6
v 1.6 1.8 -0.7
v 1.6 1.8 -0.8
v 1.6 1.9 -0.5
v 1.6 1.9 -0.7
v 1.7 0.9 -0.4
v 1.7 0.9 -0.7
v 1.7 1 -0.4
v 1.7 1 -0.7
v 1.7 1.1 -0.3
v 1.7 1.1 -0.4
v 1.7 1.1 -0.7
v 1.7 1.2 -0.3
v 1.7 1.2 -0.7
v 1.7 1.5 -0.4
v 1.7 1.5 -0.7
v 1.7 1.6 -0.4
v 1.7 1.6 -0.7
v 1.8 1 -0.4
v 1.8 1 -0.7
v 1.8 1.1 -0.4
v 1.8 1.1 -0.7
v 1.8 1.2 -0.3
v 1.8 1.2 -0.7
v 1.8 1.5 -0.3
v 1.8 1.5 -0.7
v 1.8 1.6 -0.3
v 1.8 1.6 -0.7
v 1.8 1.8 -0.3
v 1.8 1.8 -0.7
v 1.4 1 -0.3
v 1.4 1.1 -0.3
v 1.4 1.2 -0.3
v 1.4 1.8 -0.3
v 1.5 1 -0.3
v 1.5 1.1 -0.3
v 1.5 1.2 -0.3
v 1.5 1.5 -0.3
v 1.6 1.3 -0.3
v 1.6 1.5 -0.3
v 1.6 1.6 -0.3
v 1.7 1.1 -0.3
v 1.7 1.2 -0.3
v 1.7 1.3 -0.3
v 1.8 1.2 -0.3
v 1.8 1.5 -0.3
v 1.8 1.6 -0.3
v 1.8 1.8 -0.3
v 1.5 0.9 -0.4
v 1.5 1 -0.4
v 1.5 1.2 -0.4
v 1.5 1.3 -0.4
v 1.5 1.5 -0.4
v 1.6 0.9 -0.4
v 1.6 1 -0.4
v 1.6 1.1 -0.4
v 1.6 1.3 -0.4
v 1.6 1.5 -0.4
v 1.6 1.6 -0.4
v 1.7 0.9 -0.4
v 1.7 1 -0.4
v 1.7 1.1 -0.4
v 1.7 1.2 -0.4
v 1.7 1.3 -0.4
v 1.7 1.5 -0.4
v 1.7 1.6 -0.4
v 1.8 1 -0.4
v 1.8 1.1 -0.4
v 1.3 1.2 -0.5
v 1.3 1.8 -0.5
v 1.4 1.2 -0.5
v 1.4 1.8 -0.5
v 1.4 1.9 -0.5
v 1.5 1.7 -0.5
v 1.5 1.8 -0.5
v 1.6 1.7 -0.5
v 1.6 1.9 -0.5
v 1.6 1.7 -0.6
v 1.6 1.8 -0.6
v 1.7 1.7 -0.6
v 1.7 1.8 -0.6
v 1.4 1 -0.4
v 1.4 1.1 -0.4
v 1.5 1 -0.4
v 1.5 1.1 -0.4
v 1.5 1.2 -0.4
v 1.5 1.7 -0.4
v 1.5 1.8 -0.4
v 1.6 1.1 -0.4
v 1.6 1.2 -0.4
v 1.7 1.7 -0.4
v 1.7 1.8 -0.4
v 1.6 1.2 -0.6
v 1.6 1.5 -0.6
v 1.7 1.2 -0.6
v 1.7 1.5 -0.6
v 1.3 1.2 -0.7
v 1.3 1.8 -0.7
v 1.4 1.2 -0.7
v 1.4 1.8 -0.7
v 1.4 1.9 -0.7
v 1.5 0.9 -0.7
v 1.5 1 -0.7
v 1.6 0.9 -0.7
v 1.6 1 -0.7
v 1.6 1.1 -0.7
v 1.6 1.2 -0.7
v 1.6 1.5 -0.7
v 1.6 1.6 -0.7
v 1.6 1.8 -0.7
v 1.6 1.9 -0.7
v 1.7 0.9 -0.7
v 1.7 1 -0.7
v 1.7 1.1 -0.7
v 1.7 1.2 -0.7
v 1.7 1.5 -0.7
v 1.7 1.6 -0.7
v 1.8 1 -0.7
v 1.8 1.1 -0.7
v 1.8 1.2 -0.7
v 1.8 1.5 -0.7
v 1.8 1.6 -0.7
v 1.8 1.8 -0.7
v 1.4 1.2 -0.8
v 1.4 1.8 -0.8
v 1.6 1.2 -0.8
v 1.6 1.8 -0.8
v 1.5 0.9 -0.4
v 1.6 0.9 -0.4
v 1.7 0.9 -0.4
v 1.5 0.9 -0.7
v 1.6 0.9 -0.7
v 1.7 0.9 -0.7
v 1.4 1 -0.3
v 1.5 1 -0.3
v 1.4 1 -0.4
v 1.5 1 -0.4
v 1.7 1 -0.4
v 1.8 1 -0.4
v 1.7 1 -0.7
v 1.8 1 -0.7
v 1.5 1.1 -0.3
v 1.7 1.1 -0.3
v 1.5 1.1 -0.4
v 1.6 1.1 -0.4
v 1.7 1.1 -0.4
v 1.4 1.2 -0.3
v 1.5 1.2 -0.3
v 1.7 1.2 -0.3
v 1.8 1.2 -0.3
v 1.5 1.2 -0.4
v 1.6 1.2 -0.4
v 1.3 1.2 -0.5
v 1.4 1.2 -0.5
v 1.5 1.2 -0.5
v 1.6 1.2 -0.5
v 1.3 1.2 -0.7
v 1.4 1.2 -0.7
v 1.6 1.2 -0.7
v 1.7 1.2 -0.7
v 1.8 1.2 -0.7
v 1.4 1.2 -0.8
v 1.6 1.2 -0.8
v 1.6 1.3 -0.3
v 1.7 1.3 -0.3
v 1.6 1.3 -0.4
v 1.7 1.3 -0.4
v 1.5 1.5 -0.3
v 1.6 1.5 -0.3
v 1.5 1.5 -0.4
v 1.6 1.5 -0.4
v 1.6 1.5 -0.6
v 1.7 1.5 -0.6
v 1.6 1.5 -0.7
v 1.7 1.5 -0.7
v 1.6 1.6 -0.3
v 1.8 1.6 -0.3
v 1.6 1.6 -0.4
v 1.7 1.6 -0.4
v 1.7 1.6 -0.7
v 1.8 1.6 -0.7
v 1.5 1 -0.4
v 1.6 1 -0.4
v 1.5 1 -0.7
v 1.6 1 -0.7
v 1.4 1.1 -0.3
v 1.5 1.1 -0.3
v 1.4 1.1 -0.4
v 1.5 1.1 -0.4
v 1.7 1.1 -0.4
v 1.8 1.1 -0.4
v 1.7 1.1 -0.7
v 1.8 1.1 -0.7
v 1.5 1.2 -0.3
v 1.7 1.2 -0.3
v 1.5 1.2 -0.4
v 1.7 1.2 -0.4
v 1.6 1.2 -0.6
v 1.7 1.2 -0.6
v 1.6 1.2 -0.7
v 1.7 1.2 -0.7
v 1.6 1.5 -0.3
v 1.8 1.5 -0.3
v 1.6 1.5 -0.4
v 1.7 1.5 -0.4
v 1.7 1.5 -0.7
v 1.8 1.5 -0.7
v 1.5 1.7 -0.4
v 1.7 1.7 -0.4
v 1.5 1.7 -0.5
v 1.6 1.7 -0.5
v 1.6 1.7 -0.6
v 1.7 1.7 -0.6
v 1.4 1.8 -0.3
v 1.8 1.8 -0.3
v 1.5 1.8 -0.4
v 1.7 1.8 -0.4
v 1.3 1.8 -0.5
v 1.4 1.8 -0.5
v 1.5 1.8 -0.5
v 1.6 1.8 -0.6
v 1.7 1.8 -0.6
v 1.3 1.8 -0.7
v 1.4 1.8 -0.7
v 1.6 1.8 -0.7
v 1.8 1.8 -0.7
v 1.4 1.8 -0.8
v 1.6 1.8 -0.8
v 1.4 1.9 -0.5
v 1.6 1.9 -0.5
v 1.4 1.9 -0.7
v 1.6 1.9 -0.7

# faces
f 3/1/1 2/1/1 1/1/1
f 4/1/1 2/1/1 3/1/1
f 7/1/1 6/1/1 5/1/1
f 8/1/1 6/1/1 7/1/1
f 13/1/1 10/1/1 9/1/1
f 14/1/1 10/1/1 13/1/1
f 15/1/1 12/1/1 11/1/1
f 16/1/1 12/1/1 15/1/1
f 17/4/1 15/4/1 14/4/1
f 18/4/1 15/4/1 17/4/1
f 21/1/1 20/1/1 19/1/1
f 22/1/1 20/1/1 21/1/1
f 25/3/1 24/3/1 23/3/1
f 26/3/1 24/3/1 25/3/1
f 29/1/1 28/1/1 27/1/1
f 30/1/1 28/1/1 29/1/1
f 31/3/1 30/3/1 29/3/1
f 32/3/1 30/3/1 31/3/1
f 33/3/1 30/3/1 32/3/1
f 36/2/1 35/2/1 34/2/1
f 37/2/1 35/2/1 36/2/1
f 42/2/1 39/2/1 38/2/1
f 43/2/1 39/2/1 42/2/1
f 44/2/1 41/2/1 40/2/1
f 45/2/1 41/2/1 44/2/1
f 48/1/1 47/1/1 46/1/1
f 49/1/1 47/1/1 48/1/1
f 50/1/2 51/1/2 52/1/2
f 52/1/2 51/1/2 53/1/2
f 54/1/2 55/1/2 56/1/2
f 54/1/2 56/1/2 57/1/2
f 57/1/2 56/1/2 58/1/2
f 59/1/2 60/1/2 61/1/2
f 61/1/2 60/1/2 62/1/2
f 63/1/2 64/1/2 68/1/2
f 64/1/2 65/1/2 68/1/2
f 68/1/2 65/1/2 69/1/2
f 66/1/2 67/1/2 70/1/2
f 70/1/2 67/1/2 71/1/2
f 69/1/2 65/1/2 72/1/2
f 73/4/2 74/4/2 75/4/2
f 72/1/2 65/1/2 76/1/2
f 76/1/2 65/1/2 77/1/2
f 73/4/2 75/4/2 78/4/2
f 75/4/2 76/4/2 78/4/2
f 78/4/2 76/4/2 79/4/2
f 80/3/2 81/3/2 82/3/2
f 82/3/2 81/3/2 83/3/2
f 84/3/2 85/3/2 87/3/2
f 85/3/2 86/3/2 87/3/2
f 87/3/2 86/3/2 88/3/2
f 89/3/2 90/3/2 91/3/2
f 91/3/2 90/3/2 92/3/2
f 93/1/2 94/1/2 95/1/2
f 95/1/2 94/1/2 96/1/2
f 97/2/2 98/2/2 99/2/2
f 99/2/2 98/2/2 100/2/2
f 101/1/2 102/1/2 103/1/2
f 103/1/2 102/1/2 104/1/2
f 109/1/3 106/1/3 105/1/3
f 110/1/3 106/1/3 109/1/3
f 111/1/3 108/1/3 107/1/3
f 112/1/3 108/1/3 111/1/3
f 114/1/3 108/1/3 112/1/3
f 115/1/3 108/1/3 114/1/3
f 116/3/3 111/3/3 110/3/3
f 117/3/3 111/3/3 116/3/3
f 118/2/3 114/2/3 113/2/3
f 119/2/3 118/2/3 117/2/3
f 120/2/3 114/2/3 118/2/3
f 120/2/3 118/2/3 119/2/3
f 121/1/3 108/1/3 115/1/3
f 122/1/3 108/1/3 121/1/3
f 128/1/3 124/1/3 123/1/3
f 129/1/3 124/1/3 128/1/3
f 131/3/3 127/3/3 126/3/3
f 131/4/3 126/4/3 125/4/3
f 132/3/3 127/3/3 131/3/3
f 134/3/3 129/3/3 128/3/3
f 135/1/3 130/1/3 129/1/3
f 135/3/3 129/3/3 134/3/3
f 136/1/3 130/1/3 135/1/3
f 137/4/3 131/4/3 125/4/3
f 138/4/3 131/4/3 137/4/3
f 139/3/3 133/3/3 132/3/3
f 140/3/3 133/3/3 139/3/3
f 141/1/3 136/1/3 135/1/3
f 142/1/3 136/1/3 141/1/3
f 145/1/3 144/1/3 143/1/3
f 146/1/3 144/1/3 145/1/3
f 149/4/3 147/4/3 146/4/3
f 150/4/3 149/4/3 148/4/3
f 151/4/3 147/4/3 149/4/3
f 151/4/3 149/4/3 150/4/3
f 154/1/3 153/1/3 152/1/3
f 155/1/3 153/1/3 154/1/3
f 156/1/4 157/1/4 158/1/4
f 158/1/4 157/1/4 159/1/4
f 159/3/4 160/3/4 163/3/4
f 163/3/4 160/3/4 164/3/4
f 161/1/4 162/1/4 165/1/4
f 165/1/4 162/1/4 166/1/4
f 167/2/4 168/2/4 169/2/4
f 169/2/4 168/2/4 170/2/4
f 171/1/4 172/1/4 173/1/4
f 173/1/4 172/1/4 174/1/4
f 176/1/4 177/1/4 178/1/4
f 178/1/4 177/1/4 179/1/4
f 174/4/4 175/4/4 184/4/4
f 184/4/4 175/4/4 185/4/4
f 178/3/4 179/3/4 186/3/4
f 179/1/4 180/1/4 187/1/4
f 186/3/4 179/3/4 187/3/4
f 180/3/4 181/3/4 188/3/4
f 187/1/4 180/1/4 188/1/4
f 188/3/4 181/3/4 189/3/4
f 182/3/4 183/3/4 190/3/4
f 183/1/4 184/1/4 191/1/4
f 190/3/4 183/3/4 191/3/4
f 187/1/4 188/1/4 192/1/4
f 192/1/4 188/1/4 193/1/4
f 189/2/4 190/2/4 194/2/4
f 194/2/4 190/2/4 195/2/4
f 191/1/4 184/1/4 196/1/4
f 196/1/4 184/1/4 197/1/4
f 198/1/4 199/1/4 200/1/4
f 200/1/4 199/1/4 201/1/4
f 205/1/5 203/1/5 202/1/5
f 206/3/5 204/3/5 203/3/5
f 206/1/5 203/1/5 205/1/5
f 207/3/5 204/3/5 206/3/5
f 210/1/5 209/1/5 208/1/5
f 211/1/5 209/1/5 210/1/5
f 214/1/5 213/1/5 212/1/5
f 215/1/5 213/1/5 214/1/5
f 218/3/5 217/3/5 216/3/5
f 219/3/5 217/3/5 218/3/5
f 220/3/5 217/3/5 219/3/5
f 225/1/5 222/1/5 221/1/5
f 228/1/5 225/1/5 221/1/5
f 229/4/5 226/4/5 225/4/5
f 229/1/5 225/1/5 228/1/5
f 230/4/5 226/4/5 229/4/5
f 231/1/5 228/1/5 227/1/5
f 231/1/5 229/1/5 228/1/5
f 231/1/5 230/1/5 229/1/5
f 232/1/5 230/1/5 231/1/5
f 233/1/5 230/1/5 232/1/5
f 234/2/5 224/2/5 223/2/5
f 235/2/5 224/2/5 234/2/5
f 236/1/5 233/1/5 232/1/5
f 237/1/5 233/1/5 236/1/5
f 240/2/5 239/2/5 238/2/5
f 241/2/5 239/2/5 240/2/5
f 244/1/5 243/1/5 242/1/5
f 245/1/5 243/1/5 244/1/5
f 248/3/5 247/3/5 246/3/5
f 249/3/5 247/3/5 248/3/5
f 252/1/5 251/1/5 250/1/5
f 253/1/5 251/1/5 252/1/5
f 254/1/5 251/1/5 253/1/5
f 255/1/5 251/1/5 254/1/5
f 256/1/6 257/1/6 258/1/6
f 258/1/6 257/1/6 259/1/6
f 260/1/6 261/1/6 262/1/6
f 262/1/6 261/1/6 263/1/6
f 264/1/6 265/1/6 266/1/6
f 266/1/6 265/1/6 267/1/6
f 268/3/6 269/3/6 270/3/6
f 270/3/6 269/3/6 271/3/6
f 272/3/6 273/3/6 274/3/6
f 274/3/6 273/3/6 275/3/6
f 276/2/6 277/2/6 278/2/6
f 278/2/6 277/2/6 279/2/6
f 279/2/6 277/2/6 280/2/6
f 280/2/6 277/2/6 281/2/6
f 282/1/6 283/1/6 284/1/6
f 284/1/6 283/1/6 285/1/6
f 285/1/6 283/1/6 286/1/6
f 286/1/6 283/1/6 287/1/6
f 288/1/6 289/1/6 290/1/6
f 290/1/6 289/1/6 291/1/6
f 288/1/6 290/1/6 293/1/6
f 293/1/6 290/1/6 294/1/6
f 291/1/6 289/1/6 296/1/6
f 292/1/6 293/1/6 297/1/6
f 297/1/6 293/1/6 298/1/6
f 295/1/6 296/1/6 299/1/6
f 296/1/6 289/1/6 300/1/6
f 299/1/6 296/1/6 300/1/6
f 298/1/6 299/1/6 301/1/6
f 301/1/6 299/1/6 302/1/6
f 303/4/6 304/4/6 305/4/6
f 305/4/6 304/4/6 306/4/6
