# MagicaVoxel @ Ephtracy

# group
o 

# material
mtllib Mecha01_right_biceps.mtl
usemtl palette

# normals
vn -1 0 0
vn 1 0 0
vn 0 0 1
vn 0 0 -1
vn 0 -1 0
vn 0 1 0

# texcoords
vt 0.595703 0.5
vt 0.623047 0.5
vt 0.658203 0.5
vt 0.783203 0.5

# verts
v -0.8 2 1.6
v -0.8 2 1.4
v -0.8 2.3 1.6
v -0.8 2.3 1.4
v -0.8 2.4 1.6
v -0.8 2.4 1.4
v -0.8 2.6 1.4
v -0.8 2.6 1.3
v -0.8 2.8 1.6
v -0.8 2.8 1.3
v -0.7 1.9 1.6
v -0.7 1.9 1.4
v -0.7 2 1.8
v -0.7 2 1.7
v -0.7 2 1.6
v -0.7 2 1.4
v -0.7 2 1.3
v -0.7 2.3 1.8
v -0.7 2.3 1.7
v -0.7 2.3 1.6
v -0.7 2.3 1.4
v -0.7 2.3 1.3
v -0.7 2.4 1.8
v -0.7 2.4 1.6
v -0.7 2.4 1.4
v -0.7 2.4 1.3
v -0.7 2.6 1.4
v -0.7 2.6 1.3
v -0.7 2.8 1.8
v -0.7 2.8 1.6
v -0.7 2.8 1.4
v -0.7 2.9 1.6
v -0.7 2.9 1.4
v -0.6 2 1.7
v -0.6 2 1.6
v -0.6 2.3 1.8
v -0.6 2.3 1.7
v -0.6 2.3 1.6
v -0.6 2.4 1.8
v -0.6 2.4 1.6
v -0.5 2.4 1.8
v -0.5 2.4 1.7
v -0.5 2.5 1.8
v -0.5 2.5 1.7
v -0.4 2.7 1.5
v -0.4 2.7 1.4
v -0.4 2.8 1.5
v -0.4 2.8 1.4
v -0.6 2.4 1.8
v -0.6 2.4 1.7
v -0.6 2.5 1.8
v -0.6 2.5 1.7
v -0.5 1.9 1.6
v -0.5 1.9 1.4
v -0.5 2 1.6
v -0.5 2 1.4
v -0.5 2 1.3
v -0.5 2.3 1.4
v -0.5 2.3 1.3
v -0.5 2.4 1.4
v -0.5 2.4 1.3
v -0.5 2.5 1.8
v -0.5 2.5 1.7
v -0.5 2.6 1.8
v -0.5 2.6 1.7
v -0.5 2.6 1.4
v -0.5 2.6 1.3
v -0.5 2.7 1.6
v -0.5 2.7 1.4
v -0.5 2.8 1.6
v -0.5 2.8 1.4
v -0.5 2.9 1.6
v -0.5 2.9 1.4
v -0.4 2.3 1.5
v -0.4 2.3 1.4
v -0.4 2.4 1.6
v -0.4 2.4 1.5
v -0.4 2.4 1.4
v -0.4 2.5 1.7
v -0.4 2.5 1.6
v -0.4 2.6 1.7
v -0.4 2.6 1.6
v -0.4 2.6 1.5
v -0.4 2.6 1.4
v -0.4 2.6 1.3
v -0.4 2.7 1.6
v -0.4 2.7 1.5
v -0.4 2.8 1.4
v -0.4 2.8 1.3
v -0.3 2 1.8
v -0.3 2 1.4
v -0.3 2.3 1.5
v -0.3 2.3 1.4
v -0.3 2.4 1.6
v -0.3 2.4 1.5
v -0.3 2.4 1.4
v -0.3 2.5 1.8
v -0.3 2.5 1.6
v -0.3 2.6 1.8
v -0.3 2.6 1.7
v -0.3 2.6 1.6
v -0.3 2.8 1.8
v -0.3 2.8 1.7
v -0.3 2.8 1.6
v -0.3 2.8 1.5
v -0.3 2.8 1.4
v -0.7 2 1.8
v -0.7 2.3 1.8
v -0.7 2.4 1.8
v -0.7 2.8 1.8
v -0.6 2.3 1.8
v -0.6 2.4 1.8
v -0.6 2.5 1.8
v -0.5 2.3 1.8
v -0.5 2.4 1.8
v -0.5 2.5 1.8
v -0.5 2.6 1.8
v -0.3 2 1.8
v -0.3 2.5 1.8
v -0.3 2.6 1.8
v -0.3 2.8 1.8
v -0.6 2.4 1.7
v -0.6 2.5 1.7
v -0.5 2.4 1.7
v -0.5 2.5 1.7
v -0.5 2.6 1.7
v -0.4 2.5 1.7
v -0.4 2.6 1.7
v -0.8 2 1.6
v -0.8 2.3 1.6
v -0.8 2.4 1.6
v -0.8 2.8 1.6
v -0.7 1.9 1.6
v -0.7 2 1.6
v -0.7 2.3 1.6
v -0.7 2.4 1.6
v -0.7 2.8 1.6
v -0.7 2.9 1.6
v -0.6 2 1.6
v -0.6 2.3 1.6
v -0.6 2.4 1.6
v -0.6 2.8 1.6
v -0.5 1.9 1.6
v -0.5 2 1.6
v -0.5 2.8 1.6
v -0.5 2.9 1.6
v -0.4 2.4 1.5
v -0.4 2.6 1.5
v -0.4 2.7 1.5
v -0.4 2.8 1.5
v -0.3 2.4 1.5
v -0.3 2.8 1.5
v -0.5 2.7 1.4
v -0.5 2.8 1.4
v -0.4 2.7 1.4
v -0.4 2.8 1.4
v -0.7 2 1.7
v -0.7 2.3 1.7
v -0.6 2 1.7
v -0.6 2.3 1.7
v -0.5 2.7 1.6
v -0.5 2.8 1.6
v -0.4 2.4 1.6
v -0.4 2.5 1.6
v -0.4 2.6 1.6
v -0.4 2.7 1.6
v -0.3 2.4 1.6
v -0.3 2.5 1.6
v -0.3 2.6 1.6
v -0.3 2.8 1.6
v -0.4 2.3 1.5
v -0.4 2.4 1.5
v -0.3 2.3 1.5
v -0.3 2.4 1.5
v -0.8 2 1.4
v -0.8 2.3 1.4
v -0.8 2.4 1.4
v -0.8 2.6 1.4
v -0.7 1.9 1.4
v -0.7 2 1.4
v -0.7 2.3 1.4
v -0.7 2.4 1.4
v -0.7 2.6 1.4
v -0.7 2.8 1.4
v -0.7 2.9 1.4
v -0.5 1.9 1.4
v -0.5 2 1.4
v -0.5 2.3 1.4
v -0.5 2.4 1.4
v -0.5 2.6 1.4
v -0.5 2.8 1.4
v -0.5 2.9 1.4
v -0.4 2.3 1.4
v -0.4 2.4 1.4
v -0.4 2.6 1.4
v -0.4 2.8 1.4
v -0.3 2 1.4
v -0.3 2.3 1.4
v -0.3 2.4 1.4
v -0.3 2.8 1.4
v -0.8 2.6 1.3
v -0.8 2.8 1.3
v -0.7 2 1.3
v -0.7 2.3 1.3
v -0.7 2.4 1.3
v -0.7 2.6 1.3
v -0.7 2.8 1.3
v -0.5 2 1.3
v -0.5 2.3 1.3
v -0.5 2.4 1.3
v -0.5 2.6 1.3
v -0.4 2.6 1.3
v -0.4 2.8 1.3
v -0.7 1.9 1.6
v -0.5 1.9 1.6
v -0.7 1.9 1.4
v -0.5 1.9 1.4
v -0.7 2 1.8
v -0.3 2 1.8
v -0.7 2 1.7
v -0.6 2 1.7
v -0.5 2 1.7
v -0.8 2 1.6
v -0.7 2 1.6
v -0.6 2 1.6
v -0.5 2 1.6
v -0.8 2 1.4
v -0.7 2 1.4
v -0.5 2 1.4
v -0.3 2 1.4
v -0.7 2 1.3
v -0.5 2 1.3
v -0.7 2.4 1.8
v -0.6 2.4 1.8
v -0.8 2.4 1.6
v -0.7 2.4 1.6
v -0.6 2.4 1.6
v -0.4 2.4 1.5
v -0.3 2.4 1.5
v -0.8 2.4 1.4
v -0.7 2.4 1.4
v -0.5 2.4 1.4
v -0.4 2.4 1.4
v -0.3 2.4 1.4
v -0.7 2.4 1.3
v -0.5 2.4 1.3
v -0.6 2.5 1.8
v -0.5 2.5 1.8
v -0.6 2.5 1.7
v -0.5 2.5 1.7
v -0.5 2.6 1.8
v -0.3 2.6 1.8
v -0.5 2.6 1.7
v -0.4 2.6 1.7
v -0.3 2.6 1.7
v -0.4 2.6 1.6
v -0.3 2.6 1.6
v -0.8 2.6 1.4
v -0.7 2.6 1.4
v -0.5 2.6 1.4
v -0.4 2.6 1.4
v -0.8 2.6 1.3
v -0.7 2.6 1.3
v -0.5 2.6 1.3
v -0.4 2.6 1.3
v -0.7 2.3 1.8
v -0.6 2.3 1.8
v -0.7 2.3 1.7
v -0.6 2.3 1.7
v -0.8 2.3 1.6
v -0.7 2.3 1.6
v -0.4 2.3 1.5
v -0.3 2.3 1.5
v -0.8 2.3 1.4
v -0.7 2.3 1.4
v -0.5 2.3 1.4
v -0.4 2.3 1.4
v -0.3 2.3 1.4
v -0.7 2.3 1.3
v -0.5 2.3 1.3
v -0.6 2.4 1.8
v -0.5 2.4 1.8
v -0.6 2.4 1.7
v -0.5 2.4 1.7
v -0.4 2.4 1.6
v -0.3 2.4 1.6
v -0.4 2.4 1.5
v -0.3 2.4 1.5
v -0.5 2.5 1.8
v -0.3 2.5 1.8
v -0.5 2.5 1.7
v -0.4 2.5 1.7
v -0.4 2.5 1.6
v -0.3 2.5 1.6
v -0.5 2.7 1.6
v -0.4 2.7 1.6
v -0.4 2.7 1.5
v -0.5 2.7 1.4
v -0.4 2.7 1.4
v -0.7 2.8 1.8
v -0.3 2.8 1.8
v -0.6 2.8 1.7
v -0.3 2.8 1.7
v -0.8 2.8 1.6
v -0.7 2.8 1.6
v -0.6 2.8 1.6
v -0.5 2.8 1.6
v -0.3 2.8 1.6
v -0.4 2.8 1.5
v -0.3 2.8 1.5
v -0.7 2.8 1.4
v -0.5 2.8 1.4
v -0.4 2.8 1.4
v -0.3 2.8 1.4
v -0.8 2.8 1.3
v -0.7 2.8 1.3
v -0.4 2.8 1.3
v -0.7 2.9 1.6
v -0.5 2.9 1.6
v -0.7 2.9 1.4
v -0.5 2.9 1.4

# faces
f 3/1/1 2/1/1 1/1/1
f 4/1/1 2/1/1 3/1/1
f 7/2/1 6/2/1 5/2/1
f 9/2/1 7/2/1 5/2/1
f 9/2/1 8/2/1 7/2/1
f 10/2/1 8/2/1 9/2/1
f 15/4/1 12/4/1 11/4/1
f 16/4/1 12/4/1 15/4/1
f 18/1/1 14/1/1 13/1/1
f 19/1/1 14/1/1 18/1/1
f 21/1/1 17/1/1 16/1/1
f 22/1/1 17/1/1 21/1/1
f 24/3/1 21/3/1 20/3/1
f 25/3/1 21/3/1 24/3/1
f 27/1/1 26/1/1 25/1/1
f 28/1/1 26/1/1 27/1/1
f 29/2/1 24/2/1 23/2/1
f 30/2/1 24/2/1 29/2/1
f 32/4/1 31/4/1 30/4/1
f 33/4/1 31/4/1 32/4/1
f 37/3/1 35/3/1 34/3/1
f 38/3/1 35/3/1 37/3/1
f 39/3/1 37/3/1 36/3/1
f 39/3/1 38/3/1 37/3/1
f 40/3/1 38/3/1 39/3/1
f 43/1/1 42/1/1 41/1/1
f 44/1/1 42/1/1 43/1/1
f 47/1/1 46/1/1 45/1/1
f 48/1/1 46/1/1 47/1/1
f 49/2/2 50/2/2 51/2/2
f 51/2/2 50/2/2 52/2/2
f 53/4/2 54/4/2 55/4/2
f 55/4/2 54/4/2 56/4/2
f 56/1/2 57/1/2 58/1/2
f 58/1/2 57/1/2 59/1/2
f 62/2/2 63/2/2 64/2/2
f 64/2/2 63/2/2 65/2/2
f 60/1/2 61/1/2 66/1/2
f 66/1/2 61/1/2 67/1/2
f 68/4/2 69/4/2 70/4/2
f 70/4/2 69/4/2 71/4/2
f 70/4/2 71/4/2 72/4/2
f 72/4/2 71/4/2 73/4/2
f 74/3/2 75/3/2 77/3/2
f 77/3/2 75/3/2 78/3/2
f 76/3/2 77/3/2 80/3/2
f 79/3/2 80/3/2 81/3/2
f 80/3/2 77/3/2 82/3/2
f 81/3/2 80/3/2 82/3/2
f 82/3/2 77/3/2 83/3/2
f 82/4/2 83/4/2 86/4/2
f 86/4/2 83/4/2 87/4/2
f 84/1/2 85/1/2 88/1/2
f 88/1/2 85/1/2 89/1/2
f 90/1/2 91/1/2 92/1/2
f 92/1/2 91/1/2 93/1/2
f 90/1/2 92/1/2 94/1/2
f 94/1/2 92/1/2 95/1/2
f 90/1/2 94/1/2 97/1/2
f 97/1/2 94/1/2 98/1/2
f 99/2/2 100/2/2 102/2/2
f 100/1/2 101/1/2 103/1/2
f 102/2/2 100/2/2 103/2/2
f 103/1/2 101/1/2 104/1/2
f 95/1/2 96/1/2 105/1/2
f 105/1/2 96/1/2 106/1/2
f 111/1/3 108/1/3 107/1/3
f 112/2/3 110/2/3 109/2/3
f 113/2/3 110/2/3 112/2/3
f 114/1/3 111/1/3 107/1/3
f 114/3/3 112/3/3 111/3/3
f 115/3/3 112/3/3 114/3/3
f 116/2/3 110/2/3 113/2/3
f 117/2/3 110/2/3 116/2/3
f 118/1/3 115/1/3 114/1/3
f 118/1/3 114/1/3 107/1/3
f 118/1/3 116/1/3 115/1/3
f 119/1/3 116/1/3 118/1/3
f 120/2/3 110/2/3 117/2/3
f 121/2/3 110/2/3 120/2/3
f 124/3/3 123/3/3 122/3/3
f 125/3/3 123/3/3 124/3/3
f 127/3/3 126/3/3 125/3/3
f 128/3/3 126/3/3 127/3/3
f 134/1/3 130/1/3 129/1/3
f 135/1/3 130/1/3 134/1/3
f 136/2/3 132/2/3 131/2/3
f 137/2/3 132/2/3 136/2/3
f 139/1/3 135/1/3 134/1/3
f 139/4/3 134/4/3 133/4/3
f 140/3/3 136/3/3 135/3/3
f 140/1/3 135/1/3 139/1/3
f 141/3/3 136/3/3 140/3/3
f 142/4/3 138/4/3 137/4/3
f 143/4/3 139/4/3 133/4/3
f 144/4/3 139/4/3 143/4/3
f 145/4/3 138/4/3 142/4/3
f 146/4/3 138/4/3 145/4/3
f 151/1/3 148/1/3 147/1/3
f 151/1/3 150/1/3 149/1/3
f 151/1/3 149/1/3 148/1/3
f 152/1/3 150/1/3 151/1/3
f 155/1/3 154/1/3 153/1/3
f 156/1/3 154/1/3 155/1/3
f 157/1/4 158/1/4 159/1/4
f 159/1/4 158/1/4 160/1/4
f 161/1/4 162/1/4 166/1/4
f 163/1/4 164/1/4 167/1/4
f 167/1/4 164/1/4 168/1/4
f 165/1/4 166/1/4 169/1/4
f 166/1/4 162/1/4 170/1/4
f 169/1/4 166/1/4 170/1/4
f 171/1/4 172/1/4 173/1/4
f 173/1/4 172/1/4 174/1/4
f 175/1/4 176/1/4 180/1/4
f 180/1/4 176/1/4 181/1/4
f 177/2/4 178/2/4 182/2/4
f 182/2/4 178/2/4 183/2/4
f 179/4/4 180/4/4 186/4/4
f 186/4/4 180/4/4 187/4/4
f 181/3/4 182/3/4 188/3/4
f 188/3/4 182/3/4 189/3/4
f 184/4/4 185/4/4 191/4/4
f 191/4/4 185/4/4 192/4/4
f 187/1/4 188/1/4 193/1/4
f 188/3/4 189/3/4 193/3/4
f 189/1/4 190/1/4 194/1/4
f 193/3/4 189/3/4 194/3/4
f 194/1/4 190/1/4 195/1/4
f 187/1/4 193/1/4 197/1/4
f 197/1/4 193/1/4 198/1/4
f 195/1/4 196/1/4 199/1/4
f 194/1/4 195/1/4 199/1/4
f 199/1/4 196/1/4 200/1/4
f 201/2/4 202/2/4 206/2/4
f 206/2/4 202/2/4 207/2/4
f 203/1/4 204/1/4 208/1/4
f 208/1/4 204/1/4 209/1/4
f 205/1/4 206/1/4 210/1/4
f 206/1/4 207/1/4 210/1/4
f 210/1/4 207/1/4 211/1/4
f 211/1/4 207/1/4 212/1/4
f 212/1/4 207/1/4 213/1/4
f 216/4/5 215/4/5 214/4/5
f 217/4/5 215/4/5 216/4/5
f 220/1/5 219/1/5 218/1/5
f 221/1/5 219/1/5 220/1/5
f 222/1/5 219/1/5 221/1/5
f 225/3/5 222/3/5 221/3/5
f 226/1/5 219/1/5 222/1/5
f 226/3/5 222/3/5 225/3/5
f 227/1/5 224/1/5 223/1/5
f 228/1/5 224/1/5 227/1/5
f 229/1/5 219/1/5 226/1/5
f 230/1/5 219/1/5 229/1/5
f 231/1/5 229/1/5 228/1/5
f 232/1/5 229/1/5 231/1/5
f 236/2/5 234/2/5 233/2/5
f 237/2/5 234/2/5 236/2/5
f 240/2/5 236/2/5 235/2/5
f 241/2/5 236/2/5 240/2/5
f 243/1/5 239/1/5 238/1/5
f 244/1/5 239/1/5 243/1/5
f 245/1/5 242/1/5 241/1/5
f 246/1/5 242/1/5 245/1/5
f 249/2/5 248/2/5 247/2/5
f 250/2/5 248/2/5 249/2/5
f 253/2/5 252/2/5 251/2/5
f 254/2/5 252/2/5 253/2/5
f 255/2/5 252/2/5 254/2/5
f 256/1/5 255/1/5 254/1/5
f 257/1/5 255/1/5 256/1/5
f 262/2/5 259/2/5 258/2/5
f 263/2/5 259/2/5 262/2/5
f 264/1/5 261/1/5 260/1/5
f 265/1/5 261/1/5 264/1/5
f 266/1/6 267/1/6 268/1/6
f 268/1/6 267/1/6 269/1/6
f 270/1/6 271/1/6 274/1/6
f 274/1/6 271/1/6 275/1/6
f 272/1/6 273/1/6 277/1/6
f 277/1/6 273/1/6 278/1/6
f 275/1/6 276/1/6 279/1/6
f 279/1/6 276/1/6 280/1/6
f 281/3/6 282/3/6 283/3/6
f 283/3/6 282/3/6 284/3/6
f 285/1/6 286/1/6 287/1/6
f 287/1/6 286/1/6 288/1/6
f 289/1/6 290/1/6 291/1/6
f 291/1/6 290/1/6 292/1/6
f 292/1/6 290/1/6 293/1/6
f 293/1/6 290/1/6 294/1/6
f 295/4/6 296/4/6 297/4/6
f 295/4/6 297/4/6 298/4/6
f 298/4/6 297/4/6 299/4/6
f 300/2/6 301/2/6 302/2/6
f 302/2/6 301/2/6 303/2/6
f 300/2/6 302/2/6 305/2/6
f 302/1/6 303/1/6 306/1/6
f 305/2/6 302/2/6 306/2/6
f 306/1/6 303/1/6 307/1/6
f 307/1/6 303/1/6 308/1/6
f 304/2/6 305/2/6 311/2/6
f 309/1/6 310/1/6 313/1/6
f 313/1/6 310/1/6 314/1/6
f 304/2/6 311/2/6 315/2/6
f 311/1/6 312/1/6 316/1/6
f 315/2/6 311/2/6 316/2/6
f 312/1/6 313/1/6 316/1/6
f 316/1/6 313/1/6 317/1/6
f 318/4/6 319/4/6 320/4/6
f 320/4/6 319/4/6 321/4/6
