# MagicaVoxel @ Ephtracy

# group
o 

# material
mtllib Mecha01_left_thigh.mtl
usemtl palette

# normals
vn -1 0 0
vn 1 0 0
vn 0 0 1
vn 0 0 -1
vn 0 -1 0
vn 0 1 0

# texcoords
vt 0.595703 0.5
vt 0.623047 0.5
vt 0.658203 0.5
vt 0.783203 0.5

# verts
v 0.2 0.6 -0.3
v 0.2 0.6 -0.5
v 0.2 0.7 -0.3
v 0.2 0.7 -0.5
v 0.2 0.8 -0.3
v 0.2 0.8 -0.5
v 0.2 1 -0.3
v 0.2 1 -0.5
v 0.3 0.7 -0.4
v 0.3 0.7 -0.5
v 0.3 0.8 -0.4
v 0.3 0.8 -0.5
v 0.4 0.5 -0.5
v 0.4 0.5 -0.7
v 0.4 0.6 -0.1
v 0.4 0.6 -0.3
v 0.4 0.6 -0.5
v 0.4 0.6 -0.7
v 0.4 0.7 -0.1
v 0.4 0.7 -0.2
v 0.4 0.7 -0.3
v 0.4 0.7 -0.4
v 0.4 0.7 -0.5
v 0.4 0.8 -0.1
v 0.4 0.8 -0.2
v 0.4 0.8 -0.3
v 0.4 0.8 -0.4
v 0.4 0.8 -0.5
v 0.4 0.8 -0.6
v 0.4 0.8 -0.7
v 0.4 0.9 -0.5
v 0.4 0.9 -0.6
v 0.4 0.9 -0.7
v 0.4 1 -0.1
v 0.4 1 -0.3
v 0.4 1 -0.5
v 0.4 1 -0.7
v 0.4 1.2 -0.3
v 0.4 1.2 -0.5
v 0.6 0.7 -0.1
v 0.6 0.7 -0.2
v 0.6 0.8 -0.1
v 0.6 0.8 -0.2
v 0.7 0.8 -0.1
v 0.7 0.8 -0.2
v 0.7 0.9 -0.2
v 0.7 0.9 -0.4
v 0.7 1 -0.1
v 0.7 1 -0.4
v 0.5 0.9 -0.2
v 0.5 0.9 -0.3
v 0.5 1 -0.2
v 0.5 1 -0.3
v 0.6 0.5 -0.5
v 0.6 0.5 -0.7
v 0.6 0.6 -0.5
v 0.6 0.6 -0.7
v 0.6 0.8 -0.1
v 0.6 0.8 -0.2
v 0.6 0.8 -0.5
v 0.6 0.8 -0.6
v 0.6 0.8 -0.7
v 0.6 0.9 -0.2
v 0.6 0.9 -0.3
v 0.6 0.9 -0.4
v 0.6 0.9 -0.6
v 0.6 0.9 -0.7
v 0.6 1 -0.1
v 0.6 1 -0.2
v 0.6 1 -0.4
v 0.6 1 -0.5
v 0.6 1 -0.6
v 0.6 1 -0.7
v 0.6 1.2 -0.3
v 0.6 1.2 -0.5
v 0.8 0.6 -0.1
v 0.8 0.6 -0.5
v 0.8 1 -0.1
v 0.8 1 -0.5
v 0.4 0.6 -0.1
v 0.4 0.7 -0.1
v 0.4 0.8 -0.1
v 0.4 1 -0.1
v 0.6 0.7 -0.1
v 0.6 0.8 -0.1
v 0.6 1 -0.1
v 0.7 0.8 -0.1
v 0.7 1 -0.1
v 0.8 0.6 -0.1
v 0.8 1 -0.1
v 0.4 0.7 -0.2
v 0.4 0.8 -0.2
v 0.6 0.7 -0.2
v 0.6 0.8 -0.2
v 0.6 0.9 -0.2
v 0.7 0.8 -0.2
v 0.7 0.9 -0.2
v 0.2 0.6 -0.3
v 0.2 0.7 -0.3
v 0.2 0.8 -0.3
v 0.2 1 -0.3
v 0.4 0.6 -0.3
v 0.4 0.7 -0.3
v 0.4 0.8 -0.3
v 0.4 1 -0.3
v 0.4 1.2 -0.3
v 0.5 0.9 -0.3
v 0.5 1 -0.3
v 0.6 0.9 -0.3
v 0.6 1.2 -0.3
v 0.3 0.7 -0.4
v 0.3 0.8 -0.4
v 0.4 0.7 -0.4
v 0.4 0.8 -0.4
v 0.6 0.9 -0.4
v 0.6 1 -0.4
v 0.7 0.9 -0.4
v 0.7 1 -0.4
v 0.4 0.5 -0.5
v 0.4 0.6 -0.5
v 0.6 0.5 -0.5
v 0.6 0.6 -0.5
v 0.5 0.9 -0.2
v 0.5 1 -0.2
v 0.6 0.9 -0.2
v 0.6 1 -0.2
v 0.2 0.6 -0.5
v 0.2 0.7 -0.5
v 0.2 0.8 -0.5
v 0.2 1 -0.5
v 0.3 0.7 -0.5
v 0.3 0.8 -0.5
v 0.4 0.6 -0.5
v 0.4 0.7 -0.5
v 0.4 0.8 -0.5
v 0.4 0.9 -0.5
v 0.4 1 -0.5
v 0.4 1.2 -0.5
v 0.5 1 -0.5
v 0.6 0.6 -0.5
v 0.6 0.8 -0.5
v 0.6 1 -0.5
v 0.6 1.2 -0.5
v 0.8 0.6 -0.5
v 0.8 1 -0.5
v 0.4 0.8 -0.6
v 0.4 0.9 -0.6
v 0.6 0.8 -0.6
v 0.6 0.9 -0.6
v 0.4 0.5 -0.7
v 0.4 0.6 -0.7
v 0.4 0.8 -0.7
v 0.4 0.9 -0.7
v 0.4 1 -0.7
v 0.6 0.5 -0.7
v 0.6 0.6 -0.7
v 0.6 0.8 -0.7
v 0.6 0.9 -0.7
v 0.6 1 -0.7
v 0.4 0.5 -0.5
v 0.6 0.5 -0.5
v 0.4 0.5 -0.7
v 0.6 0.5 -0.7
v 0.4 0.6 -0.1
v 0.8 0.6 -0.1
v 0.2 0.6 -0.3
v 0.4 0.6 -0.3
v 0.2 0.6 -0.5
v 0.4 0.6 -0.5
v 0.6 0.6 -0.5
v 0.8 0.6 -0.5
v 0.4 0.8 -0.1
v 0.6 0.8 -0.1
v 0.4 0.8 -0.2
v 0.6 0.8 -0.2
v 0.2 0.8 -0.3
v 0.4 0.8 -0.3
v 0.3 0.8 -0.4
v 0.4 0.8 -0.4
v 0.2 0.8 -0.5
v 0.3 0.8 -0.5
v 0.4 0.9 -0.6
v 0.6 0.9 -0.6
v 0.4 0.9 -0.7
v 0.6 0.9 -0.7
v 0.4 0.7 -0.1
v 0.6 0.7 -0.1
v 0.4 0.7 -0.2
v 0.6 0.7 -0.2
v 0.2 0.7 -0.3
v 0.4 0.7 -0.3
v 0.3 0.7 -0.4
v 0.4 0.7 -0.4
v 0.2 0.7 -0.5
v 0.3 0.7 -0.5
v 0.6 0.8 -0.1
v 0.7 0.8 -0.1
v 0.6 0.8 -0.2
v 0.7 0.8 -0.2
v 0.4 0.8 -0.6
v 0.6 0.8 -0.6
v 0.4 0.8 -0.7
v 0.6 0.8 -0.7
v 0.5 0.9 -0.2
v 0.6 0.9 -0.2
v 0.7 0.9 -0.2
v 0.5 0.9 -0.3
v 0.6 0.9 -0.3
v 0.6 0.9 -0.4
v 0.7 0.9 -0.4
v 0.4 1 -0.1
v 0.6 1 -0.1
v 0.7 1 -0.1
v 0.8 1 -0.1
v 0.5 1 -0.2
v 0.6 1 -0.2
v 0.2 1 -0.3
v 0.4 1 -0.3
v 0.5 1 -0.3
v 0.6 1 -0.4
v 0.7 1 -0.4
v 0.2 1 -0.5
v 0.4 1 -0.5
v 0.5 1 -0.5
v 0.6 1 -0.5
v 0.8 1 -0.5
v 0.5 1 -0.6
v 0.6 1 -0.6
v 0.4 1 -0.7
v 0.6 1 -0.7
v 0.4 1.2 -0.3
v 0.6 1.2 -0.3
v 0.4 1.2 -0.5
v 0.6 1.2 -0.5

# faces
f 3/2/1 2/2/1 1/2/1
f 4/2/1 2/2/1 3/2/1
f 7/1/1 6/1/1 5/1/1
f 8/1/1 6/1/1 7/1/1
f 11/3/1 10/3/1 9/3/1
f 12/3/1 10/3/1 11/3/1
f 17/4/1 14/4/1 13/4/1
f 18/4/1 14/4/1 17/4/1
f 19/2/1 16/2/1 15/2/1
f 20/2/1 16/2/1 19/2/1
f 21/2/1 16/2/1 20/2/1
f 23/1/1 18/1/1 17/1/1
f 25/3/1 22/3/1 21/3/1
f 25/3/1 21/3/1 20/3/1
f 26/3/1 22/3/1 25/3/1
f 27/3/1 22/3/1 26/3/1
f 28/1/1 18/1/1 23/1/1
f 29/1/1 18/1/1 28/1/1
f 30/1/1 18/1/1 29/1/1
f 31/3/1 29/3/1 28/3/1
f 32/3/1 29/3/1 31/3/1
f 34/1/1 25/1/1 24/1/1
f 34/1/1 26/1/1 25/1/1
f 35/1/1 26/1/1 34/1/1
f 36/1/1 33/1/1 32/1/1
f 36/1/1 32/1/1 31/1/1
f 37/1/1 33/1/1 36/1/1
f 38/4/1 36/4/1 35/4/1
f 39/4/1 36/4/1 38/4/1
f 42/2/1 41/2/1 40/2/1
f 43/2/1 41/2/1 42/2/1
f 46/2/1 45/2/1 44/2/1
f 48/2/1 46/2/1 44/2/1
f 48/2/1 47/2/1 46/2/1
f 49/2/1 47/2/1 48/2/1
f 50/1/2 51/1/2 52/1/2
f 52/1/2 51/1/2 53/1/2
f 54/4/2 55/4/2 56/4/2
f 56/4/2 55/4/2 57/4/2
f 56/1/2 57/1/2 60/1/2
f 60/1/2 57/1/2 61/1/2
f 61/1/2 57/1/2 62/1/2
f 58/1/2 59/1/2 63/1/2
f 60/3/2 61/3/2 66/3/2
f 58/1/2 63/1/2 68/1/2
f 68/1/2 63/1/2 69/1/2
f 64/4/2 65/4/2 70/4/2
f 60/3/2 66/3/2 71/3/2
f 66/1/2 67/1/2 72/1/2
f 71/3/2 66/3/2 72/3/2
f 72/1/2 67/1/2 73/1/2
f 70/4/2 71/4/2 74/4/2
f 64/4/2 70/4/2 74/4/2
f 74/4/2 71/4/2 75/4/2
f 76/2/2 77/2/2 78/2/2
f 78/2/2 77/2/2 79/2/2
f 84/2/3 81/2/3 80/2/3
f 85/1/3 83/1/3 82/1/3
f 86/1/3 83/1/3 85/1/3
f 87/2/3 85/2/3 84/2/3
f 89/2/3 84/2/3 80/2/3
f 89/2/3 88/2/3 87/2/3
f 89/2/3 87/2/3 84/2/3
f 90/2/3 88/2/3 89/2/3
f 93/3/3 92/3/3 91/3/3
f 94/3/3 92/3/3 93/3/3
f 96/4/3 95/4/3 94/4/3
f 97/4/3 95/4/3 96/4/3
f 102/2/3 99/2/3 98/2/3
f 103/2/3 99/2/3 102/2/3
f 104/1/3 101/1/3 100/1/3
f 105/1/3 101/1/3 104/1/3
f 108/4/3 106/4/3 105/4/3
f 109/4/3 108/4/3 107/4/3
f 110/4/3 106/4/3 108/4/3
f 110/4/3 108/4/3 109/4/3
f 113/3/3 112/3/3 111/3/3
f 114/3/3 112/3/3 113/3/3
f 117/2/3 116/2/3 115/2/3
f 118/2/3 116/2/3 117/2/3
f 121/4/3 120/4/3 119/4/3
f 122/4/3 120/4/3 121/4/3
f 123/1/4 124/1/4 125/1/4
f 125/1/4 124/1/4 126/1/4
f 127/2/4 128/2/4 131/2/4
f 129/1/4 130/1/4 132/1/4
f 127/2/4 131/2/4 133/2/4
f 131/3/4 132/3/4 134/3/4
f 133/2/4 131/2/4 134/2/4
f 132/1/4 130/1/4 135/1/4
f 134/3/4 132/3/4 135/3/4
f 135/1/4 130/1/4 136/1/4
f 136/1/4 130/1/4 137/1/4
f 137/4/4 138/4/4 139/4/4
f 139/4/4 138/4/4 142/4/4
f 142/4/4 138/4/4 143/4/4
f 140/2/4 141/2/4 144/2/4
f 141/2/4 142/2/4 144/2/4
f 144/2/4 142/2/4 145/2/4
f 146/3/4 147/3/4 148/3/4
f 148/3/4 147/3/4 149/3/4
f 150/4/4 151/4/4 155/4/4
f 151/1/4 152/1/4 156/1/4
f 155/4/4 151/4/4 156/4/4
f 156/1/4 152/1/4 157/1/4
f 153/1/4 154/1/4 158/1/4
f 158/1/4 154/1/4 159/1/4
f 162/4/5 161/4/5 160/4/5
f 163/4/5 161/4/5 162/4/5
f 167/2/5 165/2/5 164/2/5
f 168/2/5 167/2/5 166/2/5
f 169/2/5 165/2/5 167/2/5
f 169/2/5 167/2/5 168/2/5
f 170/2/5 165/2/5 169/2/5
f 171/2/5 165/2/5 170/2/5
f 174/1/5 173/1/5 172/1/5
f 175/1/5 173/1/5 174/1/5
f 178/1/5 177/1/5 176/1/5
f 179/1/5 177/1/5 178/1/5
f 180/1/5 178/1/5 176/1/5
f 181/1/5 178/1/5 180/1/5
f 184/1/5 183/1/5 182/1/5
f 185/1/5 183/1/5 184/1/5
f 186/2/6 187/2/6 188/2/6
f 188/2/6 187/2/6 189/2/6
f 190/2/6 191/2/6 192/2/6
f 192/2/6 191/2/6 193/2/6
f 190/2/6 192/2/6 194/2/6
f 194/2/6 192/2/6 195/2/6
f 196/2/6 197/2/6 198/2/6
f 198/2/6 197/2/6 199/2/6
f 200/1/6 201/1/6 202/1/6
f 202/1/6 201/1/6 203/1/6
f 204/4/6 205/4/6 207/4/6
f 205/4/6 206/4/6 207/4/6
f 207/4/6 206/4/6 208/4/6
f 208/4/6 206/4/6 209/4/6
f 209/4/6 206/4/6 210/4/6
f 211/1/6 212/1/6 215/1/6
f 215/1/6 212/1/6 216/1/6
f 211/1/6 215/1/6 218/1/6
f 218/1/6 215/1/6 219/1/6
f 213/2/6 214/2/6 221/2/6
f 217/1/6 218/1/6 222/1/6
f 222/1/6 218/1/6 223/1/6
f 220/2/6 221/2/6 225/2/6
f 221/2/6 214/2/6 226/2/6
f 225/2/6 221/2/6 226/2/6
f 223/1/6 224/1/6 227/1/6
f 224/3/6 225/3/6 227/3/6
f 227/3/6 225/3/6 228/3/6
f 223/1/6 227/1/6 229/1/6
f 227/1/6 228/1/6 229/1/6
f 229/1/6 228/1/6 230/1/6
f 231/4/6 232/4/6 233/4/6
f 233/4/6 232/4/6 234/4/6
