# MagicaVoxel @ Ephtracy

# group
o 

# material
mtllib Mecha01_right_shoulder.mtl
usemtl palette

# normals
vn -1 0 0
vn 1 0 0
vn 0 0 1
vn 0 0 -1
vn 0 -1 0
vn 0 1 0

# texcoords
vt 0.00195312 0.5
vt 0.595703 0.5
vt 0.623047 0.5
vt 0.658203 0.5
vt 0.783203 0.5

# verts
v -2 3 0.0999999
v -2 3 -1.1
v -2 3.1 -0.3
v -2 3.1 -0.7
v -2 3.2 -0.2
v -2 3.2 -0.3
v -2 3.2 -0.7
v -2 3.2 -0.8
v -2 3.3 0.0999999
v -2 3.3 -0.2
v -2 3.3 -0.8
v -2 3.3 -1.1
v -2 3.4 -7.45058e-08
v -2 3.4 -0.3
v -2 3.4 -0.7
v -2 3.4 -1
v -2 3.7 -7.45058e-08
v -2 3.7 -1
v -1.9 3.1 -0.3
v -1.9 3.1 -0.7
v -1.9 3.2 -0.2
v -1.9 3.2 -0.3
v -1.9 3.2 -0.7
v -1.9 3.2 -0.8
v -1.9 3.3 -7.45058e-08
v -1.9 3.3 -0.1
v -1.9 3.3 -0.2
v -1.9 3.3 -0.3
v -1.9 3.3 -0.7
v -1.9 3.3 -0.8
v -1.9 3.3 -0.9
v -1.9 3.3 -1
v -1.9 3.4 -7.45058e-08
v -1.9 3.4 -0.1
v -1.9 3.4 -0.3
v -1.9 3.4 -0.7
v -1.9 3.4 -0.9
v -1.9 3.4 -1
v -1.9 3.7 -7.45058e-08
v -1.9 3.7 -1
v -1.9 3.8 -7.45058e-08
v -1.9 3.8 -1
v -1.8 3.4 0.0999999
v -1.8 3.4 -7.45058e-08
v -1.8 3.4 -1
v -1.8 3.4 -1.1
v -1.8 3.8 0.0999999
v -1.8 3.8 -7.45058e-08
v -1.8 3.8 -1
v -1.8 3.8 -1.1
v -1.6 2.9 -0.5
v -1.6 2.9 -0.7
v -1.6 3 -0.3
v -1.6 3 -0.4
v -1.6 3 -0.8
v -1.6 3 -0.9
v -1.6 3.1 -0.3
v -1.6 3.1 -0.4
v -1.6 3.1 -0.5
v -1.6 3.1 -0.7
v -1.6 3.1 -0.8
v -1.6 3.1 -0.9
v -1.6 3.3 0.0999999
v -1.6 3.3 -7.45058e-08
v -1.6 3.3 -1
v -1.6 3.3 -1.1
v -1.6 3.4 0.0999999
v -1.6 3.4 -7.45058e-08
v -1.6 3.4 -1
v -1.6 3.4 -1.1
v -1.6 3.7 -0.3
v -1.6 3.7 -0.7
v -1.6 3.8 -0.3
v -1.6 3.8 -0.7
v -1.5 3.2 0.0999999
v -1.5 3.2 -7.45058e-08
v -1.5 3.2 -1
v -1.5 3.2 -1.1
v -1.5 3.3 0.0999999
v -1.5 3.3 -7.45058e-08
v -1.5 3.3 -1
v -1.5 3.3 -1.1
v -1.5 3.7 -0.2
v -1.5 3.7 -0.3
v -1.5 3.7 -0.7
v -1.5 3.7 -0.8
v -1.5 3.8 -0.2
v -1.5 3.8 -0.3
v -1.5 3.8 -0.7
v -1.5 3.8 -0.8
v -1.4 3 0.0999999
v -1.4 3 -0.5
v -1.4 3 -0.7
v -1.4 3 -1.1
v -1.4 3.1 -7.45058e-08
v -1.4 3.1 -0.4
v -1.4 3.1 -0.5
v -1.4 3.1 -0.7
v -1.4 3.1 -0.8
v -1.4 3.1 -1
v -1.4 3.2 0.0999999
v -1.4 3.2 -7.45058e-08
v -1.4 3.2 -1
v -1.4 3.2 -1.1
v -1.4 3.6 0.0999999
v -1.4 3.6 -7.45058e-08
v -1.4 3.6 -1
v -1.4 3.6 -1.1
v -1.4 3.7 -7.45058e-08
v -1.4 3.7 -0.1
v -1.4 3.7 -0.9
v -1.4 3.7 -1
v -1.4 3.8 0.0999999
v -1.4 3.8 -0.1
v -1.4 3.8 -0.9
v -1.4 3.8 -1.1
v -1.7 3 -0.3
v -1.7 3 -0.9
v -1.7 3.1 -0.3
v -1.7 3.1 -0.9
v -1.7 3.7 -0.3
v -1.7 3.7 -0.7
v -1.7 3.8 -0.3
v -1.7 3.8 -0.7
v -1.6 3 -0.2
v -1.6 3 -0.3
v -1.6 3 -0.9
v -1.6 3 -1
v -1.6 3.1 -0.2
v -1.6 3.1 -0.3
v -1.6 3.1 -0.9
v -1.6 3.1 -1
v -1.6 3.2 0.0999999
v -1.6 3.2 -7.45058e-08
v -1.6 3.2 -1
v -1.6 3.2 -1.1
v -1.6 3.3 0.0999999
v -1.6 3.3 -7.45058e-08
v -1.6 3.3 -1
v -1.6 3.3 -1.1
v -1.6 3.7 -0.2
v -1.6 3.7 -0.3
v -1.6 3.7 -0.7
v -1.6 3.7 -0.8
v -1.6 3.8 -0.2
v -1.6 3.8 -0.3
v -1.6 3.8 -0.7
v -1.6 3.8 -0.8
v -1.5 3 0.0999999
v -1.5 3 -0.2
v -1.5 3 -0.3
v -1.5 3 -0.4
v -1.5 3 -0.8
v -1.5 3 -0.9
v -1.5 3 -1
v -1.5 3 -1.1
v -1.5 3.1 -7.45058e-08
v -1.5 3.1 -0.2
v -1.5 3.1 -0.3
v -1.5 3.1 -0.4
v -1.5 3.1 -0.8
v -1.5 3.1 -0.9
v -1.5 3.1 -1
v -1.5 3.2 0.0999999
v -1.5 3.2 -7.45058e-08
v -1.5 3.2 -1
v -1.5 3.2 -1.1
v -1.5 3.6 0.0999999
v -1.5 3.6 -7.45058e-08
v -1.5 3.6 -1
v -1.5 3.6 -1.1
v -1.5 3.7 -7.45058e-08
v -1.5 3.7 -0.2
v -1.5 3.7 -0.8
v -1.5 3.7 -1
v -1.5 3.8 0.0999999
v -1.5 3.8 -0.2
v -1.5 3.8 -0.8
v -1.5 3.8 -1.1
v -1.4 2.9 -0.5
v -1.4 2.9 -0.7
v -1.4 3 -0.5
v -1.4 3 -0.7
v -1.4 3.5 0.0999999
v -1.4 3.5 -7.45058e-08
v -1.4 3.5 -1
v -1.4 3.5 -1.1
v -1.4 3.6 0.0999999
v -1.4 3.6 -7.45058e-08
v -1.4 3.6 -1
v -1.4 3.6 -1.1
v -1.4 3.7 -0.4
v -1.4 3.7 -0.6
v -1.4 3.8 -0.4
v -1.4 3.8 -0.6
v -1.3 3 0.0999999
v -1.3 3 -1.1
v -1.3 3.2 -0.1
v -1.3 3.2 -0.3
v -1.3 3.2 -0.7
v -1.3 3.2 -0.9
v -1.3 3.4 -0.1
v -1.3 3.4 -0.3
v -1.3 3.4 -0.7
v -1.3 3.4 -0.9
v -1.3 3.5 0.0999999
v -1.3 3.5 -7.45058e-08
v -1.3 3.5 -0.1
v -1.3 3.5 -0.9
v -1.3 3.5 -1
v -1.3 3.5 -1.1
v -1.3 3.6 0.0999999
v -1.3 3.6 -7.45058e-08
v -1.3 3.6 -0.1
v -1.3 3.6 -0.2
v -1.3 3.6 -0.4
v -1.3 3.6 -0.6
v -1.3 3.6 -0.8
v -1.3 3.6 -0.9
v -1.3 3.6 -1
v -1.3 3.6 -1.1
v -1.3 3.7 -7.45058e-08
v -1.3 3.7 -0.1
v -1.3 3.7 -0.2
v -1.3 3.7 -0.4
v -1.3 3.7 -0.6
v -1.3 3.7 -0.8
v -1.3 3.7 -0.9
v -1.3 3.7 -1
v -1.3 3.8 0.0999999
v -1.3 3.8 -0.1
v -1.3 3.8 -0.2
v -1.3 3.8 -0.4
v -1.3 3.8 -0.6
v -1.3 3.8 -0.8
v -1.3 3.8 -0.9
v -1.3 3.8 -1.1
v -1.2 3.2 -0.1
v -1.2 3.2 -0.3
v -1.2 3.2 -0.7
v -1.2 3.2 -0.9
v -1.2 3.4 -0.1
v -1.2 3.4 -0.3
v -1.2 3.4 -0.7
v -1.2 3.4 -0.9
v -2 3 0.0999999
v -2 3.3 0.0999999
v -1.8 3.4 0.0999999
v -1.8 3.8 0.0999999
v -1.6 3.2 0.0999999
v -1.6 3.3 0.0999999
v -1.6 3.4 0.0999999
v -1.5 3 0.0999999
v -1.5 3.2 0.0999999
v -1.5 3.3 0.0999999
v -1.5 3.6 0.0999999
v -1.5 3.8 0.0999999
v -1.4 3 0.0999999
v -1.4 3.2 0.0999999
v -1.4 3.5 0.0999999
v -1.4 3.6 0.0999999
v -1.4 3.8 0.0999999
v -1.3 3 0.0999999
v -1.3 3.5 0.0999999
v -1.3 3.6 0.0999999
v -1.3 3.8 0.0999999
v -2 3.4 -7.45058e-08
v -2 3.7 -7.45058e-08
v -1.9 3.3 -7.45058e-08
v -1.9 3.4 -7.45058e-08
v -1.9 3.7 -7.45058e-08
v -1.9 3.8 -7.45058e-08
v -1.8 3.4 -7.45058e-08
v -1.8 3.8 -7.45058e-08
v -1.6 3.2 -7.45058e-08
v -1.6 3.3 -7.45058e-08
v -1.6 3.4 -7.45058e-08
v -1.5 3.1 -7.45058e-08
v -1.5 3.2 -7.45058e-08
v -1.5 3.3 -7.45058e-08
v -1.5 3.6 -7.45058e-08
v -1.5 3.7 -7.45058e-08
v -1.4 3.1 -7.45058e-08
v -1.4 3.2 -7.45058e-08
v -1.4 3.5 -7.45058e-08
v -1.4 3.6 -7.45058e-08
v -1.4 3.7 -7.45058e-08
v -1.3 3.5 -7.45058e-08
v -1.3 3.6 -7.45058e-08
v -1.3 3.2 -0.1
v -1.3 3.4 -0.1
v -1.2 3.2 -0.1
v -1.2 3.4 -0.1
v -1.5 3.7 -0.2
v -1.5 3.8 -0.2
v -1.3 3.7 -0.2
v -1.3 3.8 -0.2
v -2 3.2 -0.3
v -2 3.4 -0.3
v -1.9 3.2 -0.3
v -1.9 3.3 -0.3
v -1.9 3.4 -0.3
v -1.6 3 -0.3
v -1.6 3.1 -0.3
v -1.6 3.7 -0.3
v -1.6 3.8 -0.3
v -1.5 3 -0.3
v -1.5 3.1 -0.3
v -1.5 3.7 -0.3
v -1.5 3.8 -0.3
v -1.6 2.9 -0.5
v -1.6 3.1 -0.5
v -1.4 2.9 -0.5
v -1.4 3 -0.5
v -1.4 3.1 -0.5
v -1.4 3.7 -0.6
v -1.4 3.8 -0.6
v -1.3 3.7 -0.6
v -1.3 3.8 -0.6
v -2 3.1 -0.7
v -2 3.2 -0.7
v -1.9 3.1 -0.7
v -1.9 3.2 -0.7
v -1.7 3.7 -0.7
v -1.7 3.8 -0.7
v -1.6 3.7 -0.7
v -1.6 3.8 -0.7
v -1.3 3.2 -0.7
v -1.3 3.4 -0.7
v -1.2 3.2 -0.7
v -1.2 3.4 -0.7
v -2 3.2 -0.8
v -2 3.3 -0.8
v -1.9 3.2 -0.8
v -1.9 3.3 -0.8
v -1.6 3 -0.8
v -1.6 3.1 -0.8
v -1.6 3.7 -0.8
v -1.6 3.8 -0.8
v -1.5 3 -0.8
v -1.5 3.1 -0.8
v -1.5 3.7 -0.8
v -1.5 3.8 -0.8
v -1.7 3 -0.9
v -1.7 3.1 -0.9
v -1.6 3 -0.9
v -1.6 3.1 -0.9
v -1.4 3.7 -0.9
v -1.4 3.8 -0.9
v -1.3 3.7 -0.9
v -1.3 3.8 -0.9
v -1.6 3 -1
v -1.6 3.1 -1
v -1.5 3 -1
v -1.5 3.1 -1
v -1.4 3.7 -0.1
v -1.4 3.8 -0.1
v -1.3 3.7 -0.1
v -1.3 3.8 -0.1
v -2 3.2 -0.2
v -2 3.3 -0.2
v -1.9 3.2 -0.2
v -1.9 3.3 -0.2
v -1.6 3 -0.2
v -1.6 3.1 -0.2
v -1.6 3.7 -0.2
v -1.6 3.8 -0.2
v -1.5 3 -0.2
v -1.5 3.1 -0.2
v -1.5 3.7 -0.2
v -1.5 3.8 -0.2
v -2 3.1 -0.3
v -2 3.2 -0.3
v -1.9 3.1 -0.3
v -1.9 3.2 -0.3
v -1.7 3 -0.3
v -1.7 3.1 -0.3
v -1.7 3.7 -0.3
v -1.7 3.8 -0.3
v -1.6 3 -0.3
v -1.6 3.1 -0.3
v -1.6 3.7 -0.3
v -1.6 3.8 -0.3
v -1.3 3.2 -0.3
v -1.3 3.4 -0.3
v -1.2 3.2 -0.3
v -1.2 3.4 -0.3
v -1.6 3 -0.4
v -1.6 3.1 -0.4
v -1.5 3 -0.4
v -1.5 3.1 -0.4
v -1.4 3.7 -0.4
v -1.4 3.8 -0.4
v -1.3 3.7 -0.4
v -1.3 3.8 -0.4
v -2 3.2 -0.7
v -2 3.4 -0.7
v -1.9 3.2 -0.7
v -1.9 3.3 -0.7
v -1.9 3.4 -0.7
v -1.6 2.9 -0.7
v -1.6 3.1 -0.7
v -1.6 3.7 -0.7
v -1.6 3.8 -0.7
v -1.5 3.7 -0.7
v -1.5 3.8 -0.7
v -1.4 2.9 -0.7
v -1.4 3 -0.7
v -1.4 3.1 -0.7
v -1.5 3.7 -0.8
v -1.5 3.8 -0.8
v -1.3 3.7 -0.8
v -1.3 3.8 -0.8
v -1.6 3 -0.9
v -1.6 3.1 -0.9
v -1.5 3 -0.9
v -1.5 3.1 -0.9
v -1.3 3.2 -0.9
v -1.3 3.4 -0.9
v -1.2 3.2 -0.9
v -1.2 3.4 -0.9
v -2 3.4 -1
v -2 3.7 -1
v -1.9 3.3 -1
v -1.9 3.4 -1
v -1.9 3.7 -1
v -1.9 3.8 -1
v -1.8 3.4 -1
v -1.8 3.8 -1
v -1.6 3.2 -1
v -1.6 3.3 -1
v -1.6 3.4 -1
v -1.5 3.1 -1
v -1.5 3.2 -1
v -1.5 3.3 -1
v -1.5 3.6 -1
v -1.5 3.7 -1
v -1.4 3.1 -1
v -1.4 3.2 -1
v -1.4 3.5 -1
v -1.4 3.6 -1
v -1.4 3.7 -1
v -1.3 3.5 -1
v -1.3 3.6 -1
v -2 3 -1.1
v -2 3.3 -1.1
v -1.8 3.4 -1.1
v -1.8 3.8 -1.1
v -1.6 3.2 -1.1
v -1.6 3.3 -1.1
v -1.6 3.4 -1.1
v -1.5 3 -1.1
v -1.5 3.2 -1.1
v -1.5 3.3 -1.1
v -1.5 3.5 -1.1
v -1.5 3.6 -1.1
v -1.5 3.8 -1.1
v -1.4 3 -1.1
v -1.4 3.2 -1.1
v -1.4 3.5 -1.1
v -1.4 3.6 -1.1
v -1.4 3.8 -1.1
v -1.3 3 -1.1
v -1.3 3.5 -1.1
v -1.3 3.6 -1.1
v -1.3 3.8 -1.1
v -1.6 2.9 -0.5
v -1.4 2.9 -0.5
v -1.6 2.9 -0.7
v -1.4 2.9 -0.7
v -2 3 0.0999999
v -1.5 3 0.0999999
v -1.4 3 0.0999999
v -1.3 3 0.0999999
v -1.6 3 -0.2
v -1.5 3 -0.2
v -1.7 3 -0.3
v -1.6 3 -0.3
v -1.5 3 -0.3
v -1.6 3 -0.4
v -1.5 3 -0.4
v -1.4 3 -0.5
v -1.4 3 -0.7
v -1.6 3 -0.8
v -1.5 3 -0.8
v -1.7 3 -0.9
v -1.6 3 -0.9
v -1.5 3 -0.9
v -1.6 3 -1
v -1.5 3 -1
v -2 3 -1.1
v -1.5 3 -1.1
v -1.4 3 -1.1
v -1.3 3 -1.1
v -1.5 3.1 -7.45058e-08
v -1.4 3.1 -7.45058e-08
v -1.6 3.1 -0.2
v -1.5 3.1 -0.2
v -1.7 3.1 -0.3
v -1.6 3.1 -0.3
v -1.5 3.1 -0.3
v -1.6 3.1 -0.4
v -1.5 3.1 -0.4
v -1.4 3.1 -0.4
v -1.6 3.1 -0.5
v -1.4 3.1 -0.5
v -1.6 3.1 -0.7
v -1.4 3.1 -0.7
v -1.6 3.1 -0.8
v -1.5 3.1 -0.8
v -1.4 3.1 -0.8
v -1.7 3.1 -0.9
v -1.6 3.1 -0.9
v -1.5 3.1 -0.9
v -1.6 3.1 -1
v -1.5 3.1 -1
v -1.4 3.1 -1
v -1.5 3.2 0.0999999
v -1.4 3.2 0.0999999
v -1.5 3.2 -7.45058e-08
v -1.4 3.2 -7.45058e-08
v -1.3 3.2 -0.1
v -1.2 3.2 -0.1
v -2 3.2 -0.3
v -1.9 3.2 -0.3
v -1.3 3.2 -0.3
v -1.2 3.2 -0.3
v -2 3.2 -0.7
v -1.9 3.2 -0.7
v -1.3 3.2 -0.7
v -1.2 3.2 -0.7
v -1.3 3.2 -0.9
v -1.2 3.2 -0.9
v -1.5 3.2 -1
v -1.4 3.2 -1
v -1.5 3.2 -1.1
v -1.4 3.2 -1.1
v -1.6 3.3 0.0999999
v -1.5 3.3 0.0999999
v -1.6 3.3 -7.45058e-08
v -1.5 3.3 -7.45058e-08
v -1.6 3.3 -1
v -1.5 3.3 -1
v -1.6 3.3 -1.1
v -1.5 3.3 -1.1
v -1.8 3.4 0.0999999
v -1.6 3.4 0.0999999
v -2 3.4 -7.45058e-08
v -1.9 3.4 -7.45058e-08
v -1.8 3.4 -7.45058e-08
v -1.6 3.4 -7.45058e-08
v -1.9 3.4 -0.1
v -2 3.4 -0.3
v -1.9 3.4 -0.3
v -2 3.4 -0.7
v -1.9 3.4 -0.7
v -1.9 3.4 -0.9
v -2 3.4 -1
v -1.9 3.4 -1
v -1.8 3.4 -1
v -1.6 3.4 -1
v -1.8 3.4 -1.1
v -1.6 3.4 -1.1
v -1.4 3.6 0.0999999
v -1.3 3.6 0.0999999
v -1.4 3.6 -7.45058e-08
v -1.3 3.6 -7.45058e-08
v -1.4 3.6 -1
v -1.3 3.6 -1
v -1.4 3.6 -1.1
v -1.3 3.6 -1.1
v -2 3.1 -0.3
v -1.9 3.1 -0.3
v -2 3.1 -0.7
v -1.9 3.1 -0.7
v -1.6 3.2 0.0999999
v -1.5 3.2 0.0999999
v -1.6 3.2 -7.45058e-08
v -1.5 3.2 -7.45058e-08
v -2 3.2 -0.2
v -1.9 3.2 -0.2
v -2 3.2 -0.3
v -1.9 3.2 -0.3
v -2 3.2 -0.7
v -1.9 3.2 -0.7
v -2 3.2 -0.8
v -1.9 3.2 -0.8
v -1.6 3.2 -1
v -1.5 3.2 -1
v -1.6 3.2 -1.1
v -1.5 3.2 -1.1
v -2 3.3 0.0999999
v -1.6 3.3 0.0999999
v -1.9 3.3 -7.45058e-08
v -1.6 3.3 -7.45058e-08
v -1.9 3.3 -0.1
v -2 3.3 -0.2
v -1.9 3.3 -0.2
v -2 3.3 -0.8
v -1.9 3.3 -0.8
v -1.9 3.3 -0.9
v -1.9 3.3 -1
v -1.6 3.3 -1
v -2 3.3 -1.1
v -1.6 3.3 -1.1
v -1.3 3.4 -0.1
v -1.2 3.4 -0.1
v -1.3 3.4 -0.3
v -1.2 3.4 -0.3
v -1.3 3.4 -0.7
v -1.2 3.4 -0.7
v -1.3 3.4 -0.9
v -1.2 3.4 -0.9
v -1.4 3.5 0.0999999
v -1.3 3.5 0.0999999
v -1.4 3.5 -7.45058e-08
v -1.3 3.5 -7.45058e-08
v -1.4 3.5 -1
v -1.3 3.5 -1
v -1.4 3.5 -1.1
v -1.3 3.5 -1.1
v -1.5 3.6 0.0999999
v -1.4 3.6 0.0999999
v -1.5 3.6 -7.45058e-08
v -1.4 3.6 -7.45058e-08
v -1.5 3.6 -1
v -1.4 3.6 -1
v -1.5 3.6 -1.1
v -1.4 3.6 -1.1
v -2 3.7 -7.45058e-08
v -1.9 3.7 -7.45058e-08
v -1.5 3.7 -7.45058e-08
v -1.4 3.7 -7.45058e-08
v -1.4 3.7 -0.1
v -1.3 3.7 -0.1
v -1.6 3.7 -0.2
v -1.5 3.7 -0.2
v -1.3 3.7 -0.2
v -1.7 3.7 -0.3
v -1.6 3.7 -0.3
v -1.5 3.7 -0.3
v -1.4 3.7 -0.4
v -1.3 3.7 -0.4
v -1.4 3.7 -0.6
v -1.3 3.7 -0.6
v -1.7 3.7 -0.7
v -1.6 3.7 -0.7
v -1.5 3.7 -0.7
v -1.6 3.7 -0.8
v -1.5 3.7 -0.8
v -1.3 3.7 -0.8
v -1.4 3.7 -0.9
v -1.3 3.7 -0.9
v -2 3.7 -1
v -1.9 3.7 -1
v -1.5 3.7 -1
v -1.4 3.7 -1
v -1.8 3.8 0.0999999
v -1.5 3.8 0.0999999
v -1.4 3.8 0.0999999
v -1.3 3.8 0.0999999
v -1.9 3.8 -7.45058e-08
v -1.8 3.8 -7.45058e-08
v -1.4 3.8 -0.1
v -1.3 3.8 -0.1
v -1.6 3.8 -0.2
v -1.5 3.8 -0.2
v -1.3 3.8 -0.2
v -1.7 3.8 -0.3
v -1.6 3.8 -0.3
v -1.5 3.8 -0.3
v -1.4 3.8 -0.4
v -1.3 3.8 -0.4
v -1.4 3.8 -0.6
v -1.3 3.8 -0.6
v -1.7 3.8 -0.7
v -1.6 3.8 -0.7
v -1.5 3.8 -0.7
v -1.6 3.8 -0.8
v -1.5 3.8 -0.8
v -1.3 3.8 -0.8
v -1.4 3.8 -0.9
v -1.3 3.8 -0.9
v -1.9 3.8 -1
v -1.8 3.8 -1
v -1.8 3.8 -1.1
v -1.5 3.8 -1.1
v -1.4 3.8 -1.1
v -1.3 3.8 -1.1

# faces
f 3/3/1 2/3/1 1/3/1
f 4/3/1 2/3/1 3/3/1
f 5/3/1 3/3/1 1/3/1
f 6/3/1 3/3/1 5/3/1
f 7/3/1 2/3/1 4/3/1
f 8/3/1 2/3/1 7/3/1
f 9/3/1 5/3/1 1/3/1
f 10/3/1 5/3/1 9/3/1
f 11/3/1 2/3/1 8/3/1
f 12/3/1 2/3/1 11/3/1
f 14/2/1 7/2/1 6/2/1
f 15/2/1 7/2/1 14/2/1
f 17/2/1 14/2/1 13/2/1
f 17/2/1 16/2/1 15/2/1
f 17/2/1 15/2/1 14/2/1
f 18/2/1 16/2/1 17/2/1
f 22/4/1 20/4/1 19/4/1
f 23/4/1 20/4/1 22/4/1
f 27/4/1 22/4/1 21/4/1
f 28/4/1 22/4/1 27/4/1
f 29/4/1 24/4/1 23/4/1
f 30/4/1 24/4/1 29/4/1
f 33/4/1 26/4/1 25/4/1
f 34/1/1 28/1/1 27/1/1
f 34/4/1 26/4/1 33/4/1
f 34/1/1 27/1/1 26/1/1
f 35/1/1 28/1/1 34/1/1
f 36/1/1 31/1/1 30/1/1
f 36/1/1 30/1/1 29/1/1
f 37/4/1 32/4/1 31/4/1
f 37/1/1 31/1/1 36/1/1
f 38/4/1 32/4/1 37/4/1
f 41/2/1 40/2/1 39/2/1
f 42/2/1 40/2/1 41/2/1
f 47/2/1 44/2/1 43/2/1
f 48/2/1 44/2/1 47/2/1
f 49/2/1 46/2/1 45/2/1
f 50/2/1 46/2/1 49/2/1
f 57/2/1 54/2/1 53/2/1
f 58/2/1 54/2/1 57/2/1
f 59/5/1 52/5/1 51/5/1
f 60/5/1 52/5/1 59/5/1
f 61/2/1 56/2/1 55/2/1
f 62/2/1 56/2/1 61/2/1
f 67/2/1 64/2/1 63/2/1
f 68/2/1 64/2/1 67/2/1
f 69/2/1 66/2/1 65/2/1
f 70/2/1 66/2/1 69/2/1
f 73/3/1 72/3/1 71/3/1
f 74/3/1 72/3/1 73/3/1
f 79/2/1 76/2/1 75/2/1
f 80/2/1 76/2/1 79/2/1
f 81/2/1 78/2/1 77/2/1
f 82/2/1 78/2/1 81/2/1
f 87/3/1 84/3/1 83/3/1
f 88/3/1 84/3/1 87/3/1
f 89/3/1 86/3/1 85/3/1
f 90/3/1 86/3/1 89/3/1
f 95/2/1 92/2/1 91/2/1
f 96/2/1 92/2/1 95/2/1
f 97/2/1 92/2/1 96/2/1
f 98/2/1 94/2/1 93/2/1
f 99/2/1 94/2/1 98/2/1
f 100/2/1 94/2/1 99/2/1
f 101/2/1 95/2/1 91/2/1
f 102/2/1 95/2/1 101/2/1
f 103/2/1 94/2/1 100/2/1
f 104/2/1 94/2/1 103/2/1
f 109/3/1 106/3/1 105/3/1
f 112/3/1 108/3/1 107/3/1
f 113/3/1 110/3/1 109/3/1
f 113/3/1 109/3/1 105/3/1
f 114/3/1 110/3/1 113/3/1
f 115/3/1 112/3/1 111/3/1
f 116/3/1 108/3/1 112/3/1
f 116/3/1 112/3/1 115/3/1
f 117/3/2 118/3/2 119/3/2
f 119/3/2 118/3/2 120/3/2
f 121/2/2 122/2/2 123/2/2
f 123/2/2 122/2/2 124/2/2
f 125/3/2 126/3/2 129/3/2
f 129/3/2 126/3/2 130/3/2
f 127/3/2 128/3/2 131/3/2
f 131/3/2 128/3/2 132/3/2
f 133/3/2 134/3/2 137/3/2
f 137/3/2 134/3/2 138/3/2
f 135/3/2 136/3/2 139/3/2
f 139/3/2 136/3/2 140/3/2
f 141/2/2 142/2/2 145/2/2
f 145/2/2 142/2/2 146/2/2
f 143/2/2 144/2/2 147/2/2
f 147/2/2 144/2/2 148/2/2
f 149/3/2 150/3/2 157/3/2
f 157/3/2 150/3/2 158/3/2
f 151/2/2 152/2/2 159/2/2
f 159/2/2 152/2/2 160/2/2
f 153/2/2 154/2/2 161/2/2
f 161/2/2 154/2/2 162/2/2
f 155/3/2 156/3/2 163/3/2
f 149/3/2 157/3/2 164/3/2
f 164/3/2 157/3/2 165/3/2
f 163/3/2 156/3/2 166/3/2
f 166/3/2 156/3/2 167/3/2
f 168/2/2 169/2/2 172/2/2
f 170/2/2 171/2/2 175/2/2
f 172/2/2 173/2/2 176/2/2
f 168/2/2 172/2/2 176/2/2
f 176/2/2 173/2/2 177/2/2
f 174/2/2 175/2/2 178/2/2
f 175/2/2 171/2/2 179/2/2
f 178/2/2 175/2/2 179/2/2
f 180/5/2 181/5/2 182/5/2
f 182/5/2 181/5/2 183/5/2
f 184/2/2 185/2/2 188/2/2
f 188/2/2 185/2/2 189/2/2
f 186/4/2 187/4/2 190/4/2
f 190/4/2 187/4/2 191/4/2
f 192/3/2 193/3/2 194/3/2
f 194/3/2 193/3/2 195/3/2
f 196/2/2 197/2/2 198/2/2
f 198/2/2 197/2/2 199/2/2
f 199/2/2 197/2/2 200/2/2
f 200/2/2 197/2/2 201/2/2
f 196/2/2 198/2/2 202/2/2
f 199/2/2 200/2/2 203/2/2
f 203/2/2 200/2/2 204/2/2
f 201/2/2 197/2/2 205/2/2
f 203/2/2 204/2/2 206/2/2
f 204/2/2 205/2/2 206/2/2
f 196/2/2 202/2/2 206/2/2
f 202/2/2 203/2/2 206/2/2
f 206/2/2 205/2/2 207/2/2
f 207/2/2 205/2/2 208/2/2
f 205/2/2 197/2/2 209/2/2
f 208/2/2 205/2/2 209/2/2
f 209/2/2 197/2/2 210/2/2
f 210/2/2 197/2/2 211/2/2
f 207/4/2 208/4/2 213/4/2
f 208/2/2 209/2/2 214/2/2
f 213/4/2 208/4/2 214/4/2
f 214/2/2 209/2/2 215/2/2
f 215/2/2 209/2/2 216/2/2
f 216/2/2 209/2/2 217/2/2
f 217/2/2 209/2/2 218/2/2
f 209/4/2 210/4/2 219/4/2
f 218/2/2 209/2/2 219/2/2
f 219/4/2 210/4/2 220/4/2
f 212/3/2 213/3/2 222/3/2
f 213/2/2 214/2/2 222/2/2
f 214/4/2 215/4/2 223/4/2
f 222/2/2 214/2/2 223/2/2
f 215/2/2 216/2/2 224/2/2
f 223/4/2 215/4/2 224/4/2
f 216/4/2 217/4/2 225/4/2
f 224/2/2 216/2/2 225/2/2
f 217/2/2 218/2/2 226/2/2
f 225/4/2 217/4/2 226/4/2
f 218/4/2 219/4/2 227/4/2
f 226/2/2 218/2/2 227/2/2
f 219/2/2 220/2/2 228/2/2
f 227/4/2 219/4/2 228/4/2
f 220/3/2 221/3/2 229/3/2
f 228/2/2 220/2/2 229/2/2
f 212/3/2 222/3/2 230/3/2
f 222/3/2 223/3/2 230/3/2
f 230/3/2 223/3/2 231/3/2
f 224/3/2 225/3/2 232/3/2
f 232/3/2 225/3/2 233/3/2
f 226/3/2 227/3/2 234/3/2
f 234/3/2 227/3/2 235/3/2
f 228/3/2 229/3/2 236/3/2
f 229/3/2 221/3/2 237/3/2
f 236/3/2 229/3/2 237/3/2
f 238/5/2 239/5/2 242/5/2
f 242/5/2 239/5/2 243/5/2
f 240/5/2 241/5/2 244/5/2
f 244/5/2 241/5/2 245/5/2
f 250/3/3 247/3/3 246/3/3
f 251/3/3 247/3/3 250/3/3
f 252/2/3 249/2/3 248/2/3
f 253/3/3 250/3/3 246/3/3
f 254/3/3 250/3/3 253/3/3
f 255/2/3 252/2/3 251/2/3
f 256/2/3 249/2/3 252/2/3
f 256/2/3 252/2/3 255/2/3
f 257/2/3 249/2/3 256/2/3
f 259/2/3 255/2/3 254/2/3
f 259/2/3 256/2/3 255/2/3
f 260/2/3 256/2/3 259/2/3
f 261/2/3 256/2/3 260/2/3
f 263/2/3 259/2/3 258/2/3
f 263/2/3 260/2/3 259/2/3
f 264/2/3 260/2/3 263/2/3
f 265/3/3 262/3/3 261/3/3
f 266/3/3 262/3/3 265/3/3
f 270/2/3 268/2/3 267/2/3
f 271/2/3 268/2/3 270/2/3
f 273/4/3 270/4/3 269/4/3
f 273/2/3 272/2/3 271/2/3
f 273/2/3 271/2/3 270/2/3
f 274/2/3 272/2/3 273/2/3
f 276/4/3 273/4/3 269/4/3
f 277/4/3 273/4/3 276/4/3
f 279/4/3 276/4/3 275/4/3
f 280/4/3 276/4/3 279/4/3
f 283/4/3 279/4/3 278/4/3
f 284/4/3 279/4/3 283/4/3
f 286/4/3 282/4/3 281/4/3
f 287/4/3 282/4/3 286/4/3
f 288/4/3 286/4/3 285/4/3
f 289/4/3 286/4/3 288/4/3
f 292/5/3 291/5/3 290/5/3
f 293/5/3 291/5/3 292/5/3
f 296/3/3 295/3/3 294/3/3
f 297/3/3 295/3/3 296/3/3
f 300/2/3 299/2/3 298/2/3
f 301/2/3 299/2/3 300/2/3
f 302/2/3 299/2/3 301/2/3
f 307/2/3 304/2/3 303/2/3
f 308/2/3 304/2/3 307/2/3
f 309/3/3 306/3/3 305/3/3
f 310/3/3 306/3/3 309/3/3
f 313/5/3 312/5/3 311/5/3
f 314/5/3 312/5/3 313/5/3
f 315/5/3 312/5/3 314/5/3
f 318/3/3 317/3/3 316/3/3
f 319/3/3 317/3/3 318/3/3
f 322/3/3 321/3/3 320/3/3
f 323/3/3 321/3/3 322/3/3
f 326/2/3 325/2/3 324/2/3
f 327/2/3 325/2/3 326/2/3
f 330/5/3 329/5/3 328/5/3
f 331/5/3 329/5/3 330/5/3
f 334/3/3 333/3/3 332/3/3
f 335/3/3 333/3/3 334/3/3
f 340/2/3 337/2/3 336/2/3
f 341/2/3 337/2/3 340/2/3
f 342/2/3 339/2/3 338/2/3
f 343/2/3 339/2/3 342/2/3
f 346/3/3 345/3/3 344/3/3
f 347/3/3 345/3/3 346/3/3
f 350/3/3 349/3/3 348/3/3
f 351/3/3 349/3/3 350/3/3
f 354/3/3 353/3/3 352/3/3
f 355/3/3 353/3/3 354/3/3
f 356/3/4 357/3/4 358/3/4
f 358/3/4 357/3/4 359/3/4
f 360/3/4 361/3/4 362/3/4
f 362/3/4 361/3/4 363/3/4
f 364/3/4 365/3/4 368/3/4
f 368/3/4 365/3/4 369/3/4
f 366/2/4 367/2/4 370/2/4
f 370/2/4 367/2/4 371/2/4
f 372/3/4 373/3/4 374/3/4
f 374/3/4 373/3/4 375/3/4
f 376/3/4 377/3/4 380/3/4
f 380/3/4 377/3/4 381/3/4
f 378/2/4 379/2/4 382/2/4
f 382/2/4 379/2/4 383/2/4
f 384/5/4 385/5/4 386/5/4
f 386/5/4 385/5/4 387/5/4
f 388/2/4 389/2/4 390/2/4
f 390/2/4 389/2/4 391/2/4
f 392/3/4 393/3/4 394/3/4
f 394/3/4 393/3/4 395/3/4
f 396/2/4 397/2/4 398/2/4
f 398/2/4 397/2/4 399/2/4
f 399/2/4 397/2/4 400/2/4
f 403/3/4 404/3/4 405/3/4
f 405/3/4 404/3/4 406/3/4
f 401/5/4 402/5/4 407/5/4
f 407/5/4 402/5/4 408/5/4
f 408/5/4 402/5/4 409/5/4
f 410/3/4 411/3/4 412/3/4
f 412/3/4 411/3/4 413/3/4
f 414/2/4 415/2/4 416/2/4
f 416/2/4 415/2/4 417/2/4
f 418/5/4 419/5/4 420/5/4
f 420/5/4 419/5/4 421/5/4
f 422/2/4 423/2/4 425/2/4
f 425/2/4 423/2/4 426/2/4
f 424/4/4 425/4/4 428/4/4
f 426/2/4 427/2/4 428/2/4
f 425/2/4 426/2/4 428/2/4
f 428/2/4 427/2/4 429/2/4
f 424/4/4 428/4/4 431/4/4
f 431/4/4 428/4/4 432/4/4
f 430/4/4 431/4/4 434/4/4
f 434/4/4 431/4/4 435/4/4
f 433/4/4 434/4/4 438/4/4
f 438/4/4 434/4/4 439/4/4
f 436/4/4 437/4/4 441/4/4
f 441/4/4 437/4/4 442/4/4
f 440/4/4 441/4/4 443/4/4
f 443/4/4 441/4/4 444/4/4
f 445/3/4 446/3/4 449/3/4
f 449/3/4 446/3/4 450/3/4
f 447/2/4 448/2/4 451/2/4
f 445/3/4 449/3/4 452/3/4
f 452/3/4 449/3/4 453/3/4
f 450/2/4 451/2/4 454/2/4
f 451/2/4 448/2/4 455/2/4
f 454/2/4 451/2/4 455/2/4
f 455/2/4 448/2/4 456/2/4
f 456/2/4 448/2/4 457/2/4
f 453/2/4 454/2/4 459/2/4
f 454/2/4 455/2/4 459/2/4
f 455/4/4 456/4/4 460/4/4
f 459/2/4 455/2/4 460/2/4
f 460/4/4 456/4/4 461/4/4
f 458/2/4 459/2/4 463/2/4
f 459/2/4 460/2/4 463/2/4
f 463/2/4 460/2/4 464/2/4
f 461/3/4 462/3/4 465/3/4
f 465/3/4 462/3/4 466/3/4
f 469/5/5 468/5/5 467/5/5
f 470/5/5 468/5/5 469/5/5
f 475/3/5 472/3/5 471/3/5
f 476/3/5 472/3/5 475/3/5
f 477/3/5 475/3/5 471/3/5
f 478/3/5 475/3/5 477/3/5
f 480/2/5 479/2/5 478/2/5
f 481/2/5 479/2/5 480/2/5
f 482/2/5 474/2/5 473/2/5
f 483/2/5 474/2/5 482/2/5
f 486/3/5 477/3/5 471/3/5
f 487/2/5 485/2/5 484/2/5
f 488/2/5 485/2/5 487/2/5
f 489/3/5 487/3/5 486/3/5
f 491/3/5 486/3/5 471/3/5
f 491/3/5 490/3/5 489/3/5
f 491/3/5 489/3/5 486/3/5
f 492/3/5 490/3/5 491/3/5
f 493/2/5 474/2/5 483/2/5
f 494/2/5 474/2/5 493/2/5
f 498/4/5 496/4/5 495/4/5
f 500/4/5 498/4/5 497/4/5
f 501/4/5 496/4/5 498/4/5
f 501/4/5 498/4/5 500/4/5
f 502/4/5 500/4/5 499/4/5
f 503/4/5 496/4/5 501/4/5
f 504/4/5 496/4/5 503/4/5
f 505/4/5 502/4/5 499/4/5
f 505/5/5 503/5/5 502/5/5
f 505/5/5 504/5/5 503/5/5
f 506/5/5 504/5/5 505/5/5
f 507/4/5 505/4/5 499/4/5
f 509/4/5 507/4/5 499/4/5
f 509/5/5 508/5/5 507/5/5
f 510/5/5 508/5/5 509/5/5
f 511/5/5 508/5/5 510/5/5
f 512/4/5 509/4/5 499/4/5
f 513/4/5 509/4/5 512/4/5
f 514/4/5 511/4/5 510/4/5
f 515/4/5 514/4/5 513/4/5
f 516/4/5 511/4/5 514/4/5
f 516/4/5 514/4/5 515/4/5
f 517/4/5 511/4/5 516/4/5
f 520/2/5 519/2/5 518/2/5
f 521/2/5 519/2/5 520/2/5
f 526/5/5 523/5/5 522/5/5
f 527/5/5 523/5/5 526/5/5
f 528/2/5 525/2/5 524/2/5
f 529/2/5 525/2/5 528/2/5
f 532/5/5 531/5/5 530/5/5
f 533/5/5 531/5/5 532/5/5
f 536/2/5 535/2/5 534/2/5
f 537/2/5 535/2/5 536/2/5
f 540/2/5 539/2/5 538/2/5
f 541/2/5 539/2/5 540/2/5
f 544/2/5 543/2/5 542/2/5
f 545/2/5 543/2/5 544/2/5
f 550/2/5 547/2/5 546/2/5
f 551/2/5 547/2/5 550/2/5
f 552/2/5 549/2/5 548/2/5
f 553/2/5 552/2/5 548/2/5
f 554/2/5 552/2/5 553/2/5
f 557/2/5 556/2/5 555/2/5
f 558/2/5 557/2/5 555/2/5
f 559/2/5 557/2/5 558/2/5
f 562/2/5 561/2/5 560/2/5
f 563/2/5 561/2/5 562/2/5
f 566/3/5 565/3/5 564/3/5
f 567/3/5 565/3/5 566/3/5
f 570/3/5 569/3/5 568/3/5
f 571/3/5 569/3/5 570/3/5
f 572/3/6 573/3/6 574/3/6
f 574/3/6 573/3/6 575/3/6
f 576/3/6 577/3/6 578/3/6
f 578/3/6 577/3/6 579/3/6
f 580/3/6 581/3/6 582/3/6
f 582/3/6 581/3/6 583/3/6
f 584/3/6 585/3/6 586/3/6
f 586/3/6 585/3/6 587/3/6
f 588/3/6 589/3/6 590/3/6
f 590/3/6 589/3/6 591/3/6
f 592/3/6 593/3/6 594/3/6
f 594/3/6 593/3/6 595/3/6
f 592/3/6 594/3/6 596/3/6
f 592/3/6 596/3/6 597/3/6
f 597/3/6 596/3/6 598/3/6
f 599/3/6 600/3/6 601/3/6
f 599/3/6 601/3/6 602/3/6
f 599/3/6 602/3/6 604/3/6
f 602/3/6 603/3/6 604/3/6
f 604/3/6 603/3/6 605/3/6
f 606/5/6 607/5/6 608/5/6
f 608/5/6 607/5/6 609/5/6
f 610/5/6 611/5/6 612/5/6
f 612/5/6 611/5/6 613/5/6
f 614/2/6 615/2/6 616/2/6
f 616/2/6 615/2/6 617/2/6
f 618/2/6 619/2/6 620/2/6
f 620/2/6 619/2/6 621/2/6
f 622/2/6 623/2/6 624/2/6
f 624/2/6 623/2/6 625/2/6
f 626/4/6 627/4/6 628/4/6
f 628/4/6 627/4/6 629/4/6
f 632/4/6 633/4/6 634/4/6
f 632/4/6 634/4/6 637/4/6
f 634/4/6 635/4/6 637/4/6
f 637/4/6 635/4/6 638/4/6
f 636/4/6 637/4/6 640/4/6
f 640/4/6 637/4/6 641/4/6
f 642/4/6 643/4/6 644/4/6
f 644/4/6 643/4/6 645/4/6
f 639/4/6 640/4/6 646/4/6
f 646/4/6 640/4/6 647/4/6
f 647/4/6 648/4/6 649/4/6
f 649/4/6 648/4/6 650/4/6
f 650/4/6 651/4/6 652/4/6
f 652/4/6 651/4/6 653/4/6
f 630/2/6 631/2/6 654/2/6
f 654/2/6 631/2/6 655/2/6
f 650/4/6 652/4/6 656/4/6
f 656/4/6 652/4/6 657/4/6
f 658/2/6 659/2/6 663/2/6
f 660/3/6 661/3/6 664/3/6
f 664/3/6 661/3/6 665/3/6
f 662/2/6 663/2/6 666/2/6
f 663/2/6 659/2/6 666/2/6
f 666/2/6 659/2/6 667/2/6
f 662/2/6 666/2/6 669/2/6
f 669/2/6 666/2/6 670/2/6
f 667/3/6 668/3/6 671/3/6
f 670/3/6 671/3/6 672/3/6
f 671/3/6 668/3/6 672/3/6
f 672/3/6 668/3/6 673/3/6
f 670/3/6 672/3/6 674/3/6
f 662/2/6 669/2/6 676/2/6
f 674/3/6 675/3/6 677/3/6
f 670/3/6 674/3/6 677/3/6
f 677/3/6 675/3/6 678/3/6
f 676/2/6 677/2/6 679/2/6
f 678/3/6 675/3/6 680/3/6
f 680/3/6 675/3/6 681/3/6
f 662/2/6 676/2/6 684/2/6
f 676/2/6 679/2/6 684/2/6
f 679/2/6 680/2/6 684/2/6
f 684/2/6 680/2/6 685/2/6
f 685/2/6 680/2/6 686/2/6
f 686/2/6 680/2/6 687/2/6
f 682/3/6 683/3/6 688/3/6
f 688/3/6 683/3/6 689/3/6
