# MagicaVoxel @ Ephtracy

# group
o 

# material
mtllib Mecha01_left_foot.mtl
usemtl palette

# normals
vn -1 0 0
vn 1 0 0
vn 0 0 1
vn 0 0 -1
vn 0 -1 0
vn 0 1 0

# texcoords
vt 0.595703 0.5
vt 0.623047 0.5
vt 0.658203 0.5
vt 0.783203 0.5

# verts
v 0.2 0 -0.5
v 0.2 0 -0.7
v 0.2 0.4 -0.5
v 0.2 0.4 -0.7
v 0.4 0 0.3
v 0.4 0 0.1
v 0.4 0 -0.5
v 0.4 0 -0.7
v 0.4 0 -0.9
v 0.4 0 -1.1
v 0.4 0.1 0.3
v 0.4 0.1 0.1
v 0.4 0.1 -0.2
v 0.4 0.1 -0.3
v 0.4 0.1 -0.4
v 0.4 0.1 -0.5
v 0.4 0.1 -0.9
v 0.4 0.1 -1.1
v 0.4 0.2 -0.1
v 0.4 0.2 -0.2
v 0.4 0.2 -0.3
v 0.4 0.2 -0.4
v 0.4 0.2 -0.5
v 0.4 0.3 0.1
v 0.4 0.3 -0.1
v 0.4 0.4 -0.3
v 0.4 0.4 -0.4
v 0.4 0.4 -0.5
v 0.4 0.4 -0.7
v 0.4 0.4 -0.9
v 0.4 0.5 -0.5
v 0.4 0.5 -0.7
v 0.7 0 0.3
v 0.7 0 0.1
v 0.7 0.1 0.3
v 0.7 0.1 0.1
v 0.7 0.1 -0.2
v 0.7 0.2 0.1
v 0.7 0.2 -0.2
v 0.7 0.3 -0.4
v 0.7 0.3 -0.6
v 0.7 0.4 -0.4
v 0.7 0.4 -0.6
v 0.5 0.3 -0.4
v 0.5 0.3 -0.5
v 0.5 0.4 -0.4
v 0.5 0.4 -0.5
v 0.6 0 0.3
v 0.6 0 0.1
v 0.6 0 -0.9
v 0.6 0 -1.1
v 0.6 0.1 0.3
v 0.6 0.1 0.1
v 0.6 0.1 -0.2
v 0.6 0.1 -0.9
v 0.6 0.1 -1.1
v 0.6 0.2 -0.1
v 0.6 0.2 -0.2
v 0.6 0.2 -0.7
v 0.6 0.2 -0.9
v 0.6 0.3 0.1
v 0.6 0.3 -0.1
v 0.6 0.3 -0.5
v 0.6 0.3 -0.6
v 0.6 0.3 -0.7
v 0.6 0.4 -0.6
v 0.6 0.4 -0.7
v 0.6 0.4 -0.9
v 0.6 0.5 -0.5
v 0.6 0.5 -0.7
v 0.7 0.1 -0.3
v 0.7 0.1 -0.5
v 0.7 0.2 -0.3
v 0.7 0.2 -0.5
v 0.7 0.2 -0.6
v 0.7 0.3 -0.5
v 0.7 0.3 -0.6
v 0.8 0 0.1
v 0.8 0 -0.9
v 0.8 0.1 0.1
v 0.8 0.1 -0.2
v 0.8 0.1 -0.5
v 0.8 0.2 0.1
v 0.8 0.2 -0.2
v 0.8 0.2 -0.3
v 0.8 0.2 -0.5
v 0.8 0.2 -0.6
v 0.8 0.2 -0.7
v 0.8 0.2 -0.9
v 0.8 0.3 -0.5
v 0.8 0.3 -0.6
v 0.8 0.3 -0.7
v 0.8 0.4 -0.3
v 0.8 0.4 -0.6
v 0.9 0 0.3
v 0.9 0 0.1
v 0.9 0.1 0.3
v 0.9 0.1 0.1
v 0.4 0 0.3
v 0.4 0.1 0.3
v 0.6 0 0.3
v 0.6 0.1 0.3
v 0.7 0 0.3
v 0.7 0.1 0.3
v 0.9 0 0.3
v 0.9 0.1 0.3
v 0.4 0.1 0.1
v 0.4 0.3 0.1
v 0.6 0 0.1
v 0.6 0.1 0.1
v 0.6 0.3 0.1
v 0.7 0 0.1
v 0.7 0.1 0.1
v 0.7 0.2 0.1
v 0.8 0.1 0.1
v 0.8 0.2 0.1
v 0.4 0.1 -0.3
v 0.4 0.2 -0.3
v 0.4 0.4 -0.3
v 0.6 0.1 -0.3
v 0.7 0.1 -0.3
v 0.7 0.2 -0.3
v 0.8 0.2 -0.3
v 0.8 0.4 -0.3
v 0.2 0 -0.5
v 0.2 0.4 -0.5
v 0.4 0 -0.5
v 0.4 0.1 -0.5
v 0.4 0.2 -0.5
v 0.4 0.4 -0.5
v 0.4 0.5 -0.5
v 0.5 0.3 -0.5
v 0.5 0.4 -0.5
v 0.6 0.3 -0.5
v 0.6 0.5 -0.5
v 0.7 0.1 -0.5
v 0.7 0.2 -0.5
v 0.8 0.1 -0.5
v 0.8 0.2 -0.5
v 0.7 0.2 -0.6
v 0.7 0.3 -0.6
v 0.8 0.2 -0.6
v 0.8 0.3 -0.6
v 0.8 0 0.1
v 0.8 0.1 0.1
v 0.9 0 0.1
v 0.9 0.1 0.1
v 0.4 0.2 -0.1
v 0.4 0.3 -0.1
v 0.6 0.2 -0.1
v 0.6 0.3 -0.1
v 0.4 0.1 -0.2
v 0.4 0.2 -0.2
v 0.6 0.1 -0.2
v 0.6 0.2 -0.2
v 0.7 0.1 -0.2
v 0.7 0.2 -0.2
v 0.8 0.1 -0.2
v 0.8 0.2 -0.2
v 0.5 0.3 -0.4
v 0.5 0.4 -0.4
v 0.7 0.3 -0.4
v 0.7 0.4 -0.4
v 0.7 0.2 -0.5
v 0.7 0.3 -0.5
v 0.8 0.2 -0.5
v 0.8 0.3 -0.5
v 0.7 0.3 -0.6
v 0.7 0.4 -0.6
v 0.8 0.3 -0.6
v 0.8 0.4 -0.6
v 0.2 0 -0.7
v 0.2 0.4 -0.7
v 0.4 0 -0.7
v 0.4 0.4 -0.7
v 0.4 0.5 -0.7
v 0.6 0.2 -0.7
v 0.6 0.3 -0.7
v 0.6 0.4 -0.7
v 0.6 0.5 -0.7
v 0.8 0.2 -0.7
v 0.8 0.3 -0.7
v 0.4 0.1 -0.9
v 0.4 0.4 -0.9
v 0.6 0 -0.9
v 0.6 0.1 -0.9
v 0.6 0.2 -0.9
v 0.6 0.4 -0.9
v 0.8 0 -0.9
v 0.8 0.2 -0.9
v 0.4 0 -1.1
v 0.4 0.1 -1.1
v 0.6 0 -1.1
v 0.6 0.1 -1.1
v 0.4 0 0.3
v 0.6 0 0.3
v 0.7 0 0.3
v 0.9 0 0.3
v 0.4 0 0.1
v 0.6 0 0.1
v 0.7 0 0.1
v 0.8 0 0.1
v 0.9 0 0.1
v 0.6 0 -0.3
v 0.7 0 -0.3
v 0.2 0 -0.5
v 0.4 0 -0.5
v 0.2 0 -0.7
v 0.4 0 -0.7
v 0.4 0 -0.9
v 0.6 0 -0.9
v 0.8 0 -0.9
v 0.4 0 -1.1
v 0.6 0 -1.1
v 0.7 0.2 -0.3
v 0.8 0.2 -0.3
v 0.7 0.2 -0.5
v 0.8 0.2 -0.5
v 0.7 0.3 -0.5
v 0.8 0.3 -0.5
v 0.7 0.3 -0.6
v 0.8 0.3 -0.6
v 0.4 0.1 0.3
v 0.6 0.1 0.3
v 0.7 0.1 0.3
v 0.9 0.1 0.3
v 0.4 0.1 0.1
v 0.6 0.1 0.1
v 0.7 0.1 0.1
v 0.8 0.1 0.1
v 0.9 0.1 0.1
v 0.4 0.1 -0.2
v 0.6 0.1 -0.2
v 0.7 0.1 -0.2
v 0.8 0.1 -0.2
v 0.4 0.1 -0.3
v 0.6 0.1 -0.3
v 0.7 0.1 -0.3
v 0.7 0.1 -0.5
v 0.8 0.1 -0.5
v 0.4 0.1 -0.9
v 0.6 0.1 -0.9
v 0.4 0.1 -1.1
v 0.6 0.1 -1.1
v 0.7 0.2 0.1
v 0.8 0.2 0.1
v 0.4 0.2 -0.1
v 0.6 0.2 -0.1
v 0.4 0.2 -0.2
v 0.6 0.2 -0.2
v 0.7 0.2 -0.2
v 0.8 0.2 -0.2
v 0.7 0.2 -0.5
v 0.8 0.2 -0.5
v 0.7 0.2 -0.6
v 0.8 0.2 -0.6
v 0.6 0.2 -0.7
v 0.8 0.2 -0.7
v 0.6 0.2 -0.9
v 0.8 0.2 -0.9
v 0.4 0.3 0.1
v 0.6 0.3 0.1
v 0.4 0.3 -0.1
v 0.6 0.3 -0.1
v 0.5 0.3 -0.4
v 0.7 0.3 -0.4
v 0.5 0.3 -0.5
v 0.6 0.3 -0.5
v 0.6 0.3 -0.6
v 0.7 0.3 -0.6
v 0.8 0.3 -0.6
v 0.6 0.3 -0.7
v 0.8 0.3 -0.7
v 0.4 0.4 -0.3
v 0.8 0.4 -0.3
v 0.4 0.4 -0.4
v 0.5 0.4 -0.4
v 0.7 0.4 -0.4
v 0.2 0.4 -0.5
v 0.4 0.4 -0.5
v 0.5 0.4 -0.5
v 0.7 0.4 -0.6
v 0.8 0.4 -0.6
v 0.2 0.4 -0.7
v 0.4 0.4 -0.7
v 0.6 0.4 -0.7
v 0.4 0.4 -0.9
v 0.6 0.4 -0.9
v 0.4 0.5 -0.5
v 0.6 0.5 -0.5
v 0.4 0.5 -0.7
v 0.6 0.5 -0.7

# faces
f 3/2/1 2/2/1 1/2/1
f 4/2/1 2/2/1 3/2/1
f 11/4/1 6/4/1 5/4/1
f 12/2/1 7/2/1 6/2/1
f 12/4/1 6/4/1 11/4/1
f 13/2/1 7/2/1 12/2/1
f 14/2/1 7/2/1 13/2/1
f 15/2/1 7/2/1 14/2/1
f 16/2/1 7/2/1 15/2/1
f 17/4/1 10/4/1 9/4/1
f 17/2/1 9/2/1 8/2/1
f 18/4/1 10/4/1 17/4/1
f 19/1/1 13/1/1 12/1/1
f 20/1/1 13/1/1 19/1/1
f 21/3/1 15/3/1 14/3/1
f 22/1/1 16/1/1 15/1/1
f 22/3/1 15/3/1 21/3/1
f 23/1/1 16/1/1 22/1/1
f 24/1/1 19/1/1 12/1/1
f 25/1/1 19/1/1 24/1/1
f 26/1/1 22/1/1 21/1/1
f 27/3/1 23/3/1 22/3/1
f 27/1/1 22/1/1 26/1/1
f 28/3/1 23/3/1 27/3/1
f 29/2/1 17/2/1 8/2/1
f 30/2/1 17/2/1 29/2/1
f 31/4/1 29/4/1 28/4/1
f 32/4/1 29/4/1 31/4/1
f 35/4/1 34/4/1 33/4/1
f 36/4/1 34/4/1 35/4/1
f 38/2/1 37/2/1 36/2/1
f 39/2/1 37/2/1 38/2/1
f 42/1/1 41/1/1 40/1/1
f 43/1/1 41/1/1 42/1/1
f 44/3/2 45/3/2 46/3/2
f 46/3/2 45/3/2 47/3/2
f 48/4/2 49/4/2 52/4/2
f 52/4/2 49/4/2 53/4/2
f 50/4/2 51/4/2 55/4/2
f 55/4/2 51/4/2 56/4/2
f 53/1/2 54/1/2 57/1/2
f 57/1/2 54/1/2 58/1/2
f 53/1/2 57/1/2 61/1/2
f 61/1/2 57/1/2 62/1/2
f 59/2/2 60/2/2 65/2/2
f 63/4/2 64/4/2 66/4/2
f 64/2/2 65/2/2 66/2/2
f 65/2/2 60/2/2 67/2/2
f 66/2/2 65/2/2 67/2/2
f 67/2/2 60/2/2 68/2/2
f 63/4/2 66/4/2 69/4/2
f 66/4/2 67/4/2 69/4/2
f 69/4/2 67/4/2 70/4/2
f 71/3/2 72/3/2 73/3/2
f 73/3/2 72/3/2 74/3/2
f 74/4/2 75/4/2 76/4/2
f 76/4/2 75/4/2 77/4/2
f 78/2/2 79/2/2 80/2/2
f 80/2/2 79/2/2 81/2/2
f 81/2/2 79/2/2 82/2/2
f 80/2/2 81/2/2 83/2/2
f 83/2/2 81/2/2 84/2/2
f 82/2/2 79/2/2 86/2/2
f 86/2/2 79/2/2 87/2/2
f 87/2/2 79/2/2 88/2/2
f 88/2/2 79/2/2 89/2/2
f 85/1/2 86/1/2 90/1/2
f 87/2/2 88/2/2 91/2/2
f 91/2/2 88/2/2 92/2/2
f 85/1/2 90/1/2 93/1/2
f 90/1/2 91/1/2 93/1/2
f 93/1/2 91/1/2 94/1/2
f 95/4/2 96/4/2 97/4/2
f 97/4/2 96/4/2 98/4/2
f 101/4/3 100/4/3 99/4/3
f 102/4/3 100/4/3 101/4/3
f 105/4/3 104/4/3 103/4/3
f 106/4/3 104/4/3 105/4/3
f 110/1/3 108/1/3 107/1/3
f 111/1/3 108/1/3 110/1/3
f 112/3/3 110/3/3 109/3/3
f 113/3/3 110/3/3 112/3/3
f 115/2/3 114/2/3 113/2/3
f 116/2/3 114/2/3 115/2/3
f 120/3/3 118/3/3 117/3/3
f 121/3/3 118/3/3 120/3/3
f 122/1/3 119/1/3 118/1/3
f 122/3/3 118/3/3 121/3/3
f 123/1/3 119/1/3 122/1/3
f 124/1/3 119/1/3 123/1/3
f 127/2/3 126/2/3 125/2/3
f 128/2/3 126/2/3 127/2/3
f 129/2/3 126/2/3 128/2/3
f 130/2/3 126/2/3 129/2/3
f 133/4/3 131/4/3 130/4/3
f 134/4/3 133/4/3 132/4/3
f 135/4/3 131/4/3 133/4/3
f 135/4/3 133/4/3 134/4/3
f 138/2/3 137/2/3 136/2/3
f 139/2/3 137/2/3 138/2/3
f 142/2/3 141/2/3 140/2/3
f 143/2/3 141/2/3 142/2/3
f 144/4/4 145/4/4 146/4/4
f 146/4/4 145/4/4 147/4/4
f 148/1/4 149/1/4 150/1/4
f 150/1/4 149/1/4 151/1/4
f 152/1/4 153/1/4 154/1/4
f 154/1/4 153/1/4 155/1/4
f 156/2/4 157/2/4 158/2/4
f 158/2/4 157/2/4 159/2/4
f 160/1/4 161/1/4 162/1/4
f 162/1/4 161/1/4 163/1/4
f 164/1/4 165/1/4 166/1/4
f 166/1/4 165/1/4 167/1/4
f 168/1/4 169/1/4 170/1/4
f 170/1/4 169/1/4 171/1/4
f 172/2/4 173/2/4 174/2/4
f 174/2/4 173/2/4 175/2/4
f 175/4/4 176/4/4 179/4/4
f 179/4/4 176/4/4 180/4/4
f 177/2/4 178/2/4 181/2/4
f 181/2/4 178/2/4 182/2/4
f 183/2/4 184/2/4 186/2/4
f 186/2/4 184/2/4 187/2/4
f 187/2/4 184/2/4 188/2/4
f 185/2/4 186/2/4 189/2/4
f 186/2/4 187/2/4 189/2/4
f 189/2/4 187/2/4 190/2/4
f 191/4/4 192/4/4 193/4/4
f 193/4/4 192/4/4 194/4/4
f 199/4/5 196/4/5 195/4/5
f 200/4/5 196/4/5 199/4/5
f 201/4/5 198/4/5 197/4/5
f 202/4/5 198/4/5 201/4/5
f 203/4/5 198/4/5 202/4/5
f 204/2/5 200/2/5 199/2/5
f 204/3/5 201/3/5 200/3/5
f 205/2/5 202/2/5 201/2/5
f 205/3/5 201/3/5 204/3/5
f 207/2/5 204/2/5 199/2/5
f 207/2/5 205/2/5 204/2/5
f 208/2/5 207/2/5 206/2/5
f 209/2/5 205/2/5 207/2/5
f 209/2/5 207/2/5 208/2/5
f 210/2/5 205/2/5 209/2/5
f 211/2/5 205/2/5 210/2/5
f 212/2/5 202/2/5 205/2/5
f 212/2/5 205/2/5 211/2/5
f 213/4/5 211/4/5 210/4/5
f 214/4/5 211/4/5 213/4/5
f 217/1/5 216/1/5 215/1/5
f 218/1/5 216/1/5 217/1/5
f 221/1/5 220/1/5 219/1/5
f 222/1/5 220/1/5 221/1/5
f 223/4/6 224/4/6 227/4/6
f 227/4/6 224/4/6 228/4/6
f 225/4/6 226/4/6 229/4/6
f 229/4/6 226/4/6 230/4/6
f 230/4/6 226/4/6 231/4/6
f 228/3/6 229/3/6 233/3/6
f 233/3/6 229/3/6 234/3/6
f 232/2/6 233/2/6 236/2/6
f 233/3/6 234/3/6 237/3/6
f 236/2/6 233/2/6 237/2/6
f 234/2/6 235/2/6 238/2/6
f 237/3/6 234/3/6 238/3/6
f 238/2/6 235/2/6 239/2/6
f 239/2/6 235/2/6 240/2/6
f 241/4/6 242/4/6 243/4/6
f 243/4/6 242/4/6 244/4/6
f 247/1/6 248/1/6 249/1/6
f 249/1/6 248/1/6 250/1/6
f 245/2/6 246/2/6 251/2/6
f 251/2/6 246/2/6 252/2/6
f 253/2/6 254/2/6 255/2/6
f 255/2/6 254/2/6 256/2/6
f 257/2/6 258/2/6 259/2/6
f 259/2/6 258/2/6 260/2/6
f 261/1/6 262/1/6 263/1/6
f 263/1/6 262/1/6 264/1/6
f 265/4/6 266/4/6 267/4/6
f 267/4/6 266/4/6 268/4/6
f 268/4/6 266/4/6 269/4/6
f 269/4/6 266/4/6 270/4/6
f 269/2/6 270/2/6 272/2/6
f 270/2/6 271/2/6 272/2/6
f 272/2/6 271/2/6 273/2/6
f 274/1/6 275/1/6 276/1/6
f 276/1/6 275/1/6 277/1/6
f 277/1/6 275/1/6 278/1/6
f 276/3/6 277/3/6 280/3/6
f 280/3/6 277/3/6 281/3/6
f 278/1/6 275/1/6 282/1/6
f 282/1/6 275/1/6 283/1/6
f 279/2/6 280/2/6 284/2/6
f 284/2/6 280/2/6 285/2/6
f 285/2/6 286/2/6 287/2/6
f 287/2/6 286/2/6 288/2/6
f 289/4/6 290/4/6 291/4/6
f 291/4/6 290/4/6 292/4/6
